<svg width="24" height="24" fill="none" xmlns="http://www.w3.org/2000/svg"><g clip-path="url(#clip0_306_1407)" fill="#fff"><path d="M13.72 10.931h-3.44a.328.328 0 00-.328.328v2a.505.505 0 00.206.405l1.648 1.2a.328.328 0 00.387 0l1.65-1.2a.504.504 0 00.206-.405v-2a.327.327 0 00-.329-.328zm-.328 2.25L12 14.194l-1.392-1.013v-1.593h2.784v1.593z"/><path d="M22.553 10.4l-1.169-.262a2.666 2.666 0 001.762-2.663l-.001-.023a.328.328 0 00-.415-.29l-1.431.394a5.87 5.87 0 001.216-4.532.328.328 0 00-.563-.176l-5.165 5.495a1.156 1.156 0 00-.21 1.289l.232.493a.52.52 0 01-.279.693.687.687 0 01-.65-.056l-.438-.273v-.623a.326.326 0 00-.328-.328h-.358l-.066-.25a2.754 2.754 0 01.938-2.845l.822.53a.329.329 0 00.491-.178 1.651 1.651 0 00-.659-1.87l-.542-.366.366-.756a.329.329 0 00-.295-.47h-2.548a.323.323 0 00-.325.35 1.219 1.219 0 01-.604-.924h.427a.328.328 0 00.31-.22l.254-.72a1.165 1.165 0 00-.508-1.39l-.65-.384a.328.328 0 00-.333 0l-.651.383a1.166 1.166 0 00-.508 1.39l.254.722a.328.328 0 00.31.22h.426a1.219 1.219 0 01-.602.923.323.323 0 00-.325-.35H8.189a.328.328 0 00-.295.47l.366.756-.542.366a1.651 1.651 0 00-.659 1.87.328.328 0 00.492.179l.822-.53a2.753 2.753 0 01.936 2.844l-.065.25h-.357a.328.328 0 00-.328.328v.623l-.439.273a.687.687 0 01-.65.057.519.519 0 01-.279-.694l.232-.493a1.155 1.155 0 00-.21-1.29L2.048 2.848a.326.326 0 00-.337-.081.338.338 0 00-.228.272 5.86 5.86 0 001.219 4.518l-1.433-.395a.328.328 0 00-.414.29l-.002.026a2.665 2.665 0 001.763 2.661l-1.17.261a.328.328 0 00-.243.41l.006.02a2.508 2.508 0 002.604 1.782l-1.071.831a.328.328 0 00-.068.448c.2.285.399.543.607.786a2.122 2.122 0 001.61.725c.097 0 .194-.006.29-.019l4.164-.585.062.045-1.847 1.136a.329.329 0 00-.155.31l.101 1.091a.544.544 0 01-.357.561l-1.342.48-.403-.46a1.063 1.063 0 10-.521.401l.577.66.686.784a.342.342 0 00.312.106l1.67-.338a1.647 1.647 0 001.258-2.068l-.03-.107 1.044-.187.12.216a.913.913 0 01-.207 1.13l-1.684 1.436a.328.328 0 00-.112.287c.074.64.313 1.252.692 1.774a.328.328 0 00.455.075l.808-.572-.499.927a.328.328 0 00.1.423c.1.07.19.13.276.18l1.486.868a.329.329 0 00.33 0l1.486-.868c.087-.05.177-.11.277-.18a.328.328 0 00.1-.424l-.5-.926.808.572a.328.328 0 00.455-.075c.38-.522.618-1.133.693-1.774a.329.329 0 00-.113-.287l-1.684-1.436a.912.912 0 01-.206-1.13l.12-.217 1.043.188-.03.106a1.648 1.648 0 001.258 2.069l1.365.276a1.704 1.704 0 10-.734-2.32.54.54 0 01-.009-.15l.101-1.091a.329.329 0 00-.155-.31l-1.847-1.136.062-.045 4.166.585a2.124 2.124 0 001.899-.707c.207-.243.406-.5.606-.785a.328.328 0 00-.067-.448l-1.072-.831a2.504 2.504 0 002.605-1.783l.005-.019a.329.329 0 00-.244-.41zm-7.767 2.859a1.265 1.265 0 01-.51 1.002L12 15.917l-2.275-1.656a1.265 1.265 0 01-.51-1.002v-3.065h5.57v3.065zm1.559-7.134l-.552-.356a.328.328 0 00-.363.004 3.411 3.411 0 00-1.374 3.682l.022.083h-1.744a8.033 8.033 0 011.597-4.47l.051-.067h1.239l.693.469a1 1 0 01.43.655zm-1.058-2.137l-.172.357h-1.103l-.195-.357h1.47zM11.293 1.6a.508.508 0 01.222-.606L12 .709l.485.285a.508.508 0 01.222.606l-.178.502H11.47l-.177-.502zM12 3.687a1.875 1.875 0 001.345.805l.084.153-.022.029A8.664 8.664 0 0012 7.522a8.666 8.666 0 00-1.406-2.848l-.022-.03.083-.152A1.875 1.875 0 0012 3.687zm-1.817.301l-.195.357H8.885l-.172-.357h1.47zM8.57 5.773a.328.328 0 00-.362-.004l-.552.356a1 1 0 01.429-.656L8.779 5h1.238l.051.068a8.033 8.033 0 011.596 4.47H9.92l.022-.083A3.41 3.41 0 008.57 5.773zm-3.479 8.959a1.474 1.474 0 01-1.311-.482 9.336 9.336 0 01-.386-.484c.904-.7 1.872-1.453 1.872-1.453a.328.328 0 00-.263-.58l-1.043.197a1.86 1.86 0 01-2-.973l2.229-.498a.328.328 0 00-.006-.642l-1.055-.215a2.025 2.025 0 01-1.604-1.69l2.194.605a.328.328 0 00.292-.572 5.201 5.201 0 01-1.934-4.11l4.658 4.957a.496.496 0 01.096.56l-.233.493a1.173 1.173 0 00.592 1.565 1.33 1.33 0 001.278-.091l.091-.056v1.996c.004.333.092.66.257.95l-3.724.523zm-.958 2.636a.398.398 0 11.796 0 .398.398 0 01-.796 0zm13.875-.086a1.05 1.05 0 01.242 2.07l.29-.33a.327.327 0 00-.137-.526l-1.39-.498a1.043 1.043 0 01.995-.716zM14.02 15.26l1.902 1.171-.082.888a1.197 1.197 0 00.644 1.174l.003.002c.046.024.094.046.143.064l1.099.394-.244.278-.08-.017-1.402-.283a.991.991 0 01-.758-1.245l.13-.456a.327.327 0 00-.257-.412l-1.633-.294a.328.328 0 00-.346.165l-.233.423a1.572 1.572 0 00.356 1.945l1.546 1.32a3.125 3.125 0 01-.37 1.02l-1.67-1.181a.329.329 0 00-.48.423l1.018 1.891-1.306.763-1.306-.764 1.018-1.89a.328.328 0 00-.479-.424l-1.67 1.182a3.098 3.098 0 01-.37-1.021l1.545-1.32a1.572 1.572 0 00.355-1.945l-.232-.422a.329.329 0 00-.345-.165l-1.634.294a.328.328 0 00-.257.412l.13.456a.992.992 0 01-.757 1.245l-1.484.3-.243-.278 1.099-.394a1.199 1.199 0 00.79-1.24l-.083-.888 1.903-1.17 1.826 1.329a.328.328 0 00.387 0l1.827-1.33zm6.02-3.329l-1.043-.198a.327.327 0 00-.263.582l1.872 1.452a9.41 9.41 0 01-.386.484 1.472 1.472 0 01-1.31.481l-3.725-.523c.165-.29.253-.616.257-.95v-1.996l.091.056a1.332 1.332 0 001.278.092 1.175 1.175 0 00.592-1.565l-.232-.493a.497.497 0 01.095-.56l4.659-4.959a5.2 5.2 0 01-1.935 4.111.328.328 0 00.293.572l2.195-.605a2.026 2.026 0 01-1.606 1.69l-1.055.215a.328.328 0 00-.006.642l2.23.499a1.86 1.86 0 01-2.001.973z"/></g><defs><clipPath id="clip0_306_1407"><path fill="#fff" d="M0 0h24v24H0z"/></clipPath></defs></svg>