<svg width="24" height="24" fill="none" xmlns="http://www.w3.org/2000/svg"><g clip-path="url(#clip0_306_684)" fill="#fff"><path d="M17.2 2.402h-3.199v-.4a.4.4 0 00-.4-.4h-1.736a2.4 2.4 0 00-4.527 0H5.602a.4.4 0 00-.4.4v.4h-3.2a2.002 2.002 0 00-2 2V22a2.002 2.002 0 002 2h15.199a2.002 2.002 0 002-2V4.402a2.002 2.002 0 00-2-2zM16.8 18.4h-2a1.2 1.2 0 00-1.199 1.2v2H2.402V4.802h2.8v.4c0 .22.179.4.4.4H13.6a.4.4 0 00.4-.4v-.4h2.8V18.4zm-.565.8l-1.834 1.835V19.6a.4.4 0 01.4-.4h1.434zM6.002 2.402h1.64a.4.4 0 00.392-.32 1.6 1.6 0 013.135 0 .4.4 0 00.392.32h1.64v2.4h-7.2v-2.4zM18.4 22a1.2 1.2 0 01-1.2 1.2H2.002a1.2 1.2 0 01-1.2-1.2V4.402a1.2 1.2 0 011.2-1.2h3.2v.8h-3.2a.4.4 0 00-.4.4V22c0 .221.18.4.4.4h11.999a.4.4 0 00.283-.117l3.2-3.2a.4.4 0 00.08-.117l.013-.037a.405.405 0 00.02-.104c0-.008.005-.016.005-.025V4.402a.4.4 0 00-.4-.4h-3.201v-.8h3.2a1.2 1.2 0 011.2 1.2V22z"/><path d="M10.401 2.402a.8.8 0 11-1.6 0 .8.8 0 011.6 0zM4.802 8.401h-.4a.4.4 0 000 .8h.4a.4.4 0 100-.8zm1.2.4a.4.4 0 00.4.4H14.8a.4.4 0 100-.8H6.4a.4.4 0 00-.4.4zm-1.2 2h-.4a.4.4 0 000 .8h.4a.4.4 0 100-.8zm9.998 0H6.403a.4.4 0 000 .8H14.8a.4.4 0 100-.8zm-9.998 2.4h-.4a.4.4 0 000 .8h.4a.4.4 0 100-.8zm9.998 0H6.403a.4.4 0 000 .8H14.8a.4.4 0 100-.8zM4.802 15.6h-.4a.4.4 0 100 .8h.4a.4.4 0 100-.8zm9.998 0H6.403a.4.4 0 100 .8H14.8a.4.4 0 100-.8zM4.802 18h-.4a.4.4 0 000 .8h.4a.4.4 0 100-.8zm7.999 0h-6.4a.4.4 0 000 .8h6.4a.4.4 0 100-.8z"/></g><defs><clipPath id="clip0_306_684"><path fill="#fff" d="M0 0h24v24H0z"/></clipPath></defs></svg>