<svg width="56" height="56" fill="none" xmlns="http://www.w3.org/2000/svg"><g clip-path="url(#clip0_306_4333)" fill="#fff"><path d="M55.067 30.8h-2.8V8.4c0-.02-.01-.037-.012-.058a.935.935 0 00-.05-.246.865.865 0 00-.03-.088.935.935 0 00-.179-.265L44.529.276a.927.927 0 00-.602-.26.542.542 0 00-.06-.016h-28A4.672 4.672 0 0011.2 4.667V5.6H8.4a4.672 4.672 0 00-4.667 4.667V30.8h-2.8a.933.933 0 00-.933.933v19.6A4.672 4.672 0 004.667 56h46.666A4.672 4.672 0 0056 51.333v-19.6a.933.933 0 00-.933-.933zM49.08 7.467h-3.347a.933.933 0 01-.933-.934V3.186l4.28 4.28zm-36.013-2.8a2.8 2.8 0 012.8-2.8h27.066v4.666a2.8 2.8 0 002.8 2.8H50.4V30.8h-5.6V14c0-.02-.01-.037-.011-.058a.935.935 0 00-.05-.246.892.892 0 00-.031-.088.933.933 0 00-.179-.265l-7.466-7.467a.81.81 0 00-.347-.208.893.893 0 00-.259-.052c-.024-.007-.04-.016-.057-.016H13.067v-.933zm24.266 4.12l4.28 4.28h-3.346a.933.933 0 01-.934-.934V8.786zM5.6 10.266a2.8 2.8 0 012.8-2.8h27.067v4.666a2.8 2.8 0 002.8 2.8h4.666V30.8H42a2.8 2.8 0 00-2.8 2.8v1.867c.002.238-.03.474-.093.703a2.788 2.788 0 01-2.707 2.097H19.6a2.795 2.795 0 01-2.713-2.12c-.06-.221-.09-.45-.087-.68V33.6a2.8 2.8 0 00-2.8-2.8H5.6V10.267zm48.533 41.066a2.8 2.8 0 01-2.8 2.8H4.667a2.8 2.8 0 01-2.8-2.8V32.667H14c.515 0 .933.418.933.933v1.867a4.27 4.27 0 00.15 1.163 4.651 4.651 0 004.517 3.503h16.8a4.646 4.646 0 004.51-3.48c.107-.386.16-.786.157-1.186V33.6c0-.515.418-.933.933-.933h12.133v18.666z"/><path d="M35.467 42H20.533a2.8 2.8 0 000 5.6h14.934a2.8 2.8 0 000-5.6zm0 3.733H20.533a.933.933 0 010-1.866h14.934a.933.933 0 010 1.866zM17.733 13.067H30.8a.933.933 0 000-1.867H17.733a.933.933 0 000 1.867zM11.2 17.733c0 .516.418.934.933.934H36.4a.933.933 0 000-1.867H12.133a.933.933 0 00-.933.933zM36.4 22.4H12.133a.933.933 0 000 1.867H36.4a.933.933 0 000-1.867zm.933 6.533A.933.933 0 0036.4 28H12.133a.933.933 0 000 1.867H36.4a.933.933 0 00.933-.934zM36.4 33.6H19.6a.933.933 0 000 1.867h16.8a.933.933 0 000-1.867zM13.067 10.267a.933.933 0 00-.934-.934h-1.866a2.8 2.8 0 00-2.8 2.8V14a.933.933 0 101.866 0v-1.867c0-.515.418-.933.934-.933h1.866a.933.933 0 00.934-.933zM50.4 45.733v3.734a.933.933 0 01-.933.933h-3.734a.933.933 0 000 1.867h3.734a2.8 2.8 0 002.8-2.8v-3.734a.933.933 0 00-1.867 0z"/></g><defs><clipPath id="clip0_306_4333"><path fill="#fff" d="M0 0h56v56H0z"/></clipPath></defs></svg>