<svg width="56" height="56" fill="none" xmlns="http://www.w3.org/2000/svg"><path d="M51.258 18.307a3.582 3.582 0 00-4.138 2.662l-2.067 7.7a3.49 3.49 0 00-3.675-.11l-5.983 3.51A7.906 7.906 0 0031.5 38.86v6.64h-1.75a.875.875 0 00-.875.875v7a.875.875 0 00.875.875H45.5a.875.875 0 00.875-.875v-7a.875.875 0 00-.875-.875h-1.75v-1.015a2.624 2.624 0 01.916-1.993l4.08-3.5a4.361 4.361 0 001.38-2.188l3.796-14.168c.08-.297.12-.603.118-.91a3.515 3.515 0 00-2.782-3.42zM44.625 52.5h-14v-5.25h14v5.25zm7.607-30.318l-3.797 14.17a2.611 2.611 0 01-.827 1.312l-4.08 3.5A4.375 4.375 0 0042 44.485V45.5h-8.75v-6.64a6.148 6.148 0 013.026-5.283l5.976-3.506c.266-.153.568-.233.875-.234a1.727 1.727 0 011.564.963 1.837 1.837 0 01-.797 2.372l-4.9 2.824a.876.876 0 00.874 1.517l4.9-2.824a3.573 3.573 0 001.636-4.293l2.407-8.969a1.857 1.857 0 012.089-1.4 1.756 1.756 0 011.332 2.155zM26.25 45.5H24.5v-6.64a7.906 7.906 0 00-3.89-6.792l-5.99-3.514a3.495 3.495 0 00-3.675.114l-2.066-7.7a3.587 3.587 0 00-4.14-2.663 3.506 3.506 0 00-2.664 4.329l3.797 14.17A4.354 4.354 0 007.25 38.99l4.08 3.5a2.624 2.624 0 01.92 1.994V45.5H10.5a.875.875 0 00-.875.875v7a.875.875 0 00.875.875h15.75a.875.875 0 00.875-.875v-7a.875.875 0 00-.875-.875zm-13.778-4.337l-4.08-3.5a2.605 2.605 0 01-.827-1.313L3.768 22.181a1.756 1.756 0 011.334-2.162 1.859 1.859 0 012.089 1.4l2.407 8.968a3.573 3.573 0 001.635 4.294l4.9 2.824a.876.876 0 10.875-1.517l-4.9-2.824a1.838 1.838 0 01-.798-2.372 1.73 1.73 0 011.561-.955c.305 0 .605.079.87.23l5.983 3.511a6.146 6.146 0 013.026 5.282v6.64H14v-1.015a4.375 4.375 0 00-1.528-3.322zM25.375 52.5h-14v-5.25h14v5.25zM42 13.65V2.625a.876.876 0 00-1.313-.76l-1.246.713a9.606 9.606 0 01-9.079.253l-1.978-.99a.875.875 0 00-.782 0l-1.965.986a9.604 9.604 0 01-9.081-.25l-1.244-.711A.875.875 0 0014 2.625V13.65a21.836 21.836 0 0011.58 19.302l2.008 1.07a.875.875 0 00.824 0l2.007-1.07A21.834 21.834 0 0042 13.65zM28 32.259l-1.595-.852A20.089 20.089 0 0115.75 13.65V4.133a11.35 11.35 0 0010.668.262l1.575-.787 1.587.792a11.35 11.35 0 0010.67-.267v9.517a20.087 20.087 0 01-10.655 17.757L28 32.26z" fill="#fff"/><path d="M38.5 7.905a.877.877 0 00-1.06-.856c-2.92.622-5.964.24-8.638-1.088l-.413-.205a.875.875 0 00-.788 0l-.404.202a13.227 13.227 0 01-8.642 1.09.875.875 0 00-1.055.856v5.746a18.34 18.34 0 009.728 16.213l.36.192a.875.875 0 00.823 0l.36-.192A18.34 18.34 0 0038.5 13.65V7.905zm-1.75 5.745A16.595 16.595 0 0128 28.291a16.594 16.594 0 01-8.75-14.641V8.949a14.998 14.998 0 008.734-1.424L28 7.516l.021.012a14.98 14.98 0 008.729 1.421v4.701z" fill="#fff"/><path d="M32.95 12.188l-6.7 6.7-2.732-2.732a.875.875 0 00-1.237 1.237l3.35 3.35a.875.875 0 001.238 0l7.318-7.318a.876.876 0 10-1.237-1.237z" fill="#fff"/></svg>