<svg width="24" height="24" fill="none" xmlns="http://www.w3.org/2000/svg"><g clip-path="url(#clip0_306_844)"><path d="M23.72 5.175a.379.379 0 00-.021-.103l-.013-.038a.4.4 0 00-.08-.117l-4.8-4.8a.395.395 0 00-.118-.08l-.036-.013a.394.394 0 00-.105-.02c-.007 0-.014-.004-.023-.004h-12a2.002 2.002 0 00-2 2v2.944a7.585 7.585 0 000 13.88V22a2.003 2.003 0 002 2h15.2a2.002 2.002 0 002-2V5.2c0-.009-.004-.016-.005-.025zM22.358 4.8h-3.035a.4.4 0 01-.4-.4V1.366L22.36 4.8zM.809 11.884a6.791 6.791 0 017.475-6.767 6.781 6.781 0 016.04 5.749c.053.337.082.677.084 1.018a6.746 6.746 0 01-1.043 3.62 6.8 6.8 0 01-12.556-3.62zm11.445 6.009a7.47 7.47 0 00.73-.634c.177-.18.346-.37.505-.567.044-.053.086-.108.128-.162.049-.064.101-.124.147-.188l3.41 3.414a1.19 1.19 0 010 1.692 1.218 1.218 0 01-1.693 0l-3.415-3.408c.065-.047.125-.099.188-.147zm9.47 5.307h-15.2a1.2 1.2 0 01-1.2-1.2v-2.864c.025.008.051.014.076.021.064.02.13.035.194.053a6.918 6.918 0 001.138.22c.07.007.137.017.206.023a7.55 7.55 0 004.438-.973l3.537 3.533a2 2 0 102.827-2.824l-3.535-3.537a7.547 7.547 0 00.967-4.522 7.56 7.56 0 00-2.188-4.62 7.55 7.55 0 00-6.046-2.195c-.069.006-.137.016-.206.024a7.547 7.547 0 00-1.134.218c-.066.018-.133.034-.2.054l-.075.02V2a1.2 1.2 0 011.2-1.2h11.601v3.6a1.2 1.2 0 001.2 1.2h3.6V22a1.2 1.2 0 01-1.2 1.2z" fill="#fff"/><path d="M16.524 2.8a.4.4 0 00-.4-.4h-8.8a.4.4 0 000 .8h8.8a.4.4 0 00.4-.4zm4.4 6.8h-4.8a.4.4 0 000 .8h4.8a.4.4 0 000-.8z" fill="#fff"/><path d="M20.924 12h-4.8a.4.4 0 000 .8h4.8a.4.4 0 000-.8z" fill="#ffff"/><path d="M21.324 14.8a.4.4 0 00-.4-.4h-5.2a.4.4 0 000 .8h5.2a.4.4 0 00.4-.4zm0 2.4a.4.4 0 00-.4-.4h-3.6a.4.4 0 000 .8h3.6a.4.4 0 00.4-.4zm-4.8-12a.4.4 0 00-.4-.4h-3.2a.4.4 0 000 .8h3.2a.4.4 0 00.4-.4zm4.8 2.4a.4.4 0 00-.4-.4h-6a.4.4 0 000 .8h6a.4.4 0 00.4-.4zM6.124 10h2.8a.4.4 0 000-.8h-2.8a.4.4 0 000 .8zm4.8 2a.4.4 0 00-.4-.4h-6a.4.4 0 000 .8h6a.4.4 0 00.4-.4zm-2 2h-2.8a.4.4 0 000 .8h2.8a.4.4 0 000-.8z" fill="#fff"/><path d="M10.456 17.16a5.867 5.867 0 002.333-2.264c.032-.055.066-.108.096-.164.015-.03.027-.06.042-.088a6.39 6.39 0 00.173-.353c.052-.12.093-.233.136-.351.012-.034.028-.067.04-.101A6 6 0 002.311 9.058a5.964 5.964 0 00-.703 2.824 5.993 5.993 0 008.848 5.28v-.002zm-5.34-.713a5.267 5.267 0 01-2.098-2.117 5.203 5.203 0 018.267-6.123 5.23 5.23 0 01.896 6.146v.004a5.112 5.112 0 01-2.101 2.1 5.185 5.185 0 01-4.964-.008v-.002z" fill="#fff"/><path d="M21.724 19.2a.4.4 0 00-.4.4v1.6a.4.4 0 01-.4.4h-1.6a.4.4 0 000 .8h1.6a1.2 1.2 0 001.2-1.2v-1.6a.4.4 0 00-.4-.4z" fill="#ffff"/></g><defs><clipPath id="clip0_306_844"><path fill="#fff" d="M0 0h24v24H0z"/></clipPath></defs></svg>