<svg width="24" height="24" fill="none" xmlns="http://www.w3.org/2000/svg"><g clip-path="url(#clip0_306_584)" fill="#fff"><path d="M22 1.6h-4.4V.8a.8.8 0 00-.8-.8H9.366A.806.806 0 008.8.234L7.434 1.6H2A1.2 1.2 0 00.8 2.8V18A1.2 1.2 0 002 19.2h5.6v.986l-2.222 1.48a.437.437 0 00-.046.04l-.02.016a.4.4 0 00-.073.11l-.011.028A.4.4 0 005.2 22v1.2a.8.8 0 00.8.8h12a.8.8 0 00.8-.8V22a.4.4 0 00-.028-.139l-.01-.028a.4.4 0 00-.075-.11l-.019-.016a.43.43 0 00-.046-.04L16.4 20.186V19.2H22a1.2 1.2 0 001.2-1.2V2.8A1.2 1.2 0 0022 1.6zM17.6 4h3.2v9.6h-3.2V4zm-.8 9.6H7.2V3.2h1.6a.8.8 0 00.8-.8V.8h7.2v12.8zm-10.4 0H3.2V4h3.2v9.6zM7.766 2.4L8.8 1.366V2.4H7.766zM2 2.4h4.634a.806.806 0 00-.234.566V3.2H3.2a.8.8 0 00-.8.8v9.6a.8.8 0 00.8.8h17.6a.8.8 0 00.8-.8V4a.8.8 0 00-.8-.8h-3.2v-.8H22a.4.4 0 01.4.4v12.4H1.6V2.8a.4.4 0 01.4-.4zm15.08 19.2H6.92l1.2-.8h7.76l1.2.8zM6 23.2v-.8h12v.8H6zm9.6-3.2H8.4v-.8h7.2v.8zm6.4-1.6H2a.4.4 0 01-.4-.4v-2h20.8v2a.4.4 0 01-.4.4z"/><path d="M12.8 16.8h-1.6a.4.4 0 100 .8h1.6a.4.4 0 100-.8zm1.6-11.6a.4.4 0 11-.347.6.4.4 0 00-.692.4c.145.244.372.428.64.52v.08a.4.4 0 10.8 0v-.074A1.198 1.198 0 0014.4 4.4a.4.4 0 11.347-.6.4.4 0 00.692-.4 1.197 1.197 0 00-.639-.52V2.8a.4.4 0 10-.8 0v.074a1.197 1.197 0 00.4 2.326zm0 5.6a.4.4 0 11-.347.6.4.4 0 00-.692.4c.145.244.372.428.64.52v.08a.4.4 0 10.8 0v-.074A1.197 1.197 0 0014.4 10a.4.4 0 11.347-.6.4.4 0 00.692-.4 1.197 1.197 0 00-.639-.52V8.4a.4.4 0 10-.8 0v.074a1.197 1.197 0 00.4 2.326zM8.8 4.634l-.117-.117a.4.4 0 00-.566.566l.4.4a.4.4 0 00.566 0l1.2-1.2a.4.4 0 00-.566-.566l-.917.917zm0 2.566a.4.4 0 100-.8h-.4a.4.4 0 100 .8h.4zm1.2-.4a.4.4 0 00.4.4H12a.4.4 0 100-.8h-1.6a.4.4 0 00-.4.4zm-1.483 4.283a.4.4 0 00.566 0l1.2-1.2a.4.4 0 00-.566-.566l-.917.917-.117-.117a.4.4 0 00-.566.566l.4.4zM8.8 12h-.4a.4.4 0 100 .8h.4a.4.4 0 100-.8zm3.2 0h-1.6a.4.4 0 100 .8H12a.4.4 0 100-.8z"/></g><defs><clipPath id="clip0_306_584"><path fill="#fff" d="M0 0h24v24H0z"/></clipPath></defs></svg>