<svg width="149" height="44" fill="none" xmlns="http://www.w3.org/2000/svg"><rect x=".5" y=".5" width="147.5" height="43" rx="4.5" fill="#000"/><path d="M74.95 23.926c-2.588 0-4.696 1.968-4.696 4.679 0 2.694 2.108 4.678 4.696 4.678 2.588 0 4.697-1.984 4.697-4.678-.002-2.71-2.11-4.679-4.697-4.679zm0 7.516c-1.418 0-2.64-1.17-2.64-2.836 0-1.684 1.223-2.836 2.64-2.836 1.418 0 2.64 1.152 2.64 2.836 0 1.665-1.222 2.836-2.64 2.836zm-10.246-7.516c-2.587 0-4.696 1.968-4.696 4.679 0 2.694 2.109 4.678 4.696 4.678 2.589 0 4.697-1.984 4.697-4.678 0-2.71-2.108-4.679-4.697-4.679zm0 7.516c-1.418 0-2.64-1.17-2.64-2.836 0-1.684 1.223-2.836 2.64-2.836 1.418 0 2.64 1.152 2.64 2.836.001 1.665-1.222 2.836-2.64 2.836zm-12.186-6.079v1.984h4.75c-.142 1.117-.514 1.932-1.081 2.498-.69.691-1.772 1.454-3.669 1.454-2.923 0-5.21-2.358-5.21-5.282 0-2.923 2.287-5.28 5.21-5.28 1.578 0 2.73.62 3.58 1.417l1.4-1.4c-1.188-1.134-2.764-2.002-4.98-2.002-4.005 0-7.372 3.26-7.372 7.265 0 4.006 3.367 7.266 7.372 7.266 2.162 0 3.793-.71 5.068-2.038 1.311-1.312 1.72-3.155 1.72-4.643 0-.46-.036-.886-.107-1.24h-6.68v.001zm49.839 1.541c-.389-1.045-1.577-2.978-4.005-2.978-2.41 0-4.413 1.897-4.413 4.679 0 2.622 1.985 4.678 4.643 4.678 2.144 0 3.385-1.311 3.899-2.074l-1.595-1.063c-.531.78-1.258 1.293-2.304 1.293-1.045 0-1.79-.478-2.268-1.418l6.255-2.587-.212-.53zm-6.38 1.56c-.053-1.808 1.4-2.73 2.447-2.73.815 0 1.505.409 1.736.993l-4.183 1.737zM90.892 33h2.055V19.25h-2.055V33zm-3.368-8.027h-.07c-.462-.55-1.348-1.047-2.464-1.047-2.34 0-4.483 2.056-4.483 4.697 0 2.623 2.144 4.661 4.483 4.661 1.117 0 2.002-.496 2.463-1.063h.07v.674c0 1.79-.956 2.746-2.497 2.746-1.259 0-2.039-.903-2.358-1.665l-1.79.745c.514 1.24 1.878 2.764 4.148 2.764 2.41 0 4.448-1.418 4.448-4.874v-8.4h-1.95v.762zm-2.356 6.469c-1.418 0-2.605-1.188-2.605-2.819 0-1.649 1.187-2.853 2.605-2.853 1.399 0 2.498 1.204 2.498 2.853 0 1.63-1.1 2.819-2.498 2.819zm26.819-12.193h-4.919V33h2.052v-5.21h2.865c2.275 0 4.513-1.646 4.513-4.27 0-2.623-2.237-4.27-4.511-4.27zm.052 6.628h-2.919v-4.714h2.919c1.535 0 2.406 1.27 2.406 2.357 0 1.065-.871 2.357-2.406 2.357zm12.686-1.975c-1.487 0-3.025.655-3.662 2.106l1.821.76c.39-.76 1.116-1.009 1.876-1.009 1.061 0 2.14.637 2.158 1.769v.142c-.372-.213-1.168-.53-2.141-.53-1.963 0-3.963 1.079-3.963 3.095 0 1.84 1.61 3.025 3.414 3.025 1.38 0 2.141-.62 2.618-1.345h.071v1.061h1.982v-5.272c.001-2.44-1.823-3.802-4.174-3.802zm-.249 7.536c-.671 0-1.609-.336-1.609-1.168 0-1.061 1.168-1.468 2.177-1.468.9 0 1.326.194 1.874.46a2.489 2.489 0 01-2.442 2.176zm11.641-7.235l-2.353 5.962h-.07l-2.442-5.962h-2.211l3.662 8.332-2.088 4.635h2.141l5.644-12.968h-2.283zM117.631 33h2.051V19.25h-2.051V33zM52.16 11.267c0 .922-.273 1.656-.82 2.204-.62.65-1.43.976-2.424.976-.953 0-1.763-.33-2.429-.99-.666-.66-1-1.48-1-2.456 0-.978.334-1.796 1-2.456.666-.661 1.476-.991 2.429-.991.473 0 .925.092 1.354.276.43.185.774.43 1.032.737l-.58.58c-.437-.522-1.038-.783-1.807-.783a2.51 2.51 0 00-1.803.733c-.507.488-.76 1.123-.76 1.903s.253 1.415.76 1.903a2.51 2.51 0 001.803.733c.737 0 1.352-.246 1.843-.737.32-.32.504-.766.554-1.337h-2.397v-.793h3.198c.033.173.047.339.047.498zm5.071-2.757h-3.005v2.093h2.71v.793h-2.71v2.092h3.005v.812h-3.853V7.7h3.853v.81zm3.576 5.79h-.848V8.51h-1.844V7.7h4.535v.81h-1.843v5.79zm5.125 0V7.7h.848v6.6h-.848zm4.609 0h-.848V8.51h-1.844V7.7h4.536v.81H70.54v5.79zm10.429-.853c-.65.667-1.456 1-2.42 1-.965 0-1.771-.333-2.42-1-.648-.666-.971-1.482-.971-2.447 0-.965.323-1.78.972-2.447.648-.667 1.454-1.001 2.419-1.001.959 0 1.764.335 2.415 1.005.652.67.977 1.484.977 2.443 0 .965-.324 1.78-.972 2.447zm-4.213-.553a2.42 2.42 0 001.793.742c.707 0 1.306-.248 1.793-.742.488-.495.733-1.126.733-1.894s-.245-1.4-.733-1.894a2.42 2.42 0 00-1.793-.742c-.707 0-1.305.248-1.793.742-.488.495-.733 1.126-.733 1.894s.245 1.4.733 1.894zm6.375 1.406V7.7h1.032l3.208 5.134h.036l-.036-1.272V7.7h.848v6.6h-.886l-3.356-5.383h-.036l.036 1.271V14.3h-.846z" fill="#fff"/><path d="M52.16 11.267c0 .922-.273 1.656-.82 2.204-.62.65-1.43.976-2.424.976-.953 0-1.763-.33-2.429-.99-.666-.66-1-1.48-1-2.456 0-.978.334-1.796 1-2.456.666-.661 1.476-.991 2.429-.991.473 0 .925.092 1.354.276.43.185.774.43 1.032.737l-.58.58c-.437-.522-1.038-.783-1.807-.783a2.51 2.51 0 00-1.803.733c-.507.488-.76 1.123-.76 1.903s.253 1.415.76 1.903a2.51 2.51 0 001.803.733c.737 0 1.352-.246 1.843-.737.32-.32.504-.766.554-1.337h-2.397v-.793h3.198c.033.173.047.339.047.498zm5.071-2.757h-3.005v2.093h2.71v.793h-2.71v2.092h3.005v.812h-3.853V7.7h3.853v.81zm3.576 5.79h-.848V8.51h-1.844V7.7h4.535v.81h-1.843v5.79zm5.125 0V7.7h.848v6.6h-.848zm4.609 0h-.848V8.51h-1.844V7.7h4.536v.81H70.54v5.79zm10.429-.853c-.65.667-1.456 1-2.42 1-.965 0-1.771-.333-2.42-1-.648-.666-.971-1.482-.971-2.447 0-.965.323-1.78.972-2.447.648-.667 1.454-1.001 2.419-1.001.959 0 1.764.335 2.415 1.005.652.67.977 1.484.977 2.443 0 .965-.324 1.78-.972 2.447zm-4.213-.553a2.42 2.42 0 001.793.742c.707 0 1.306-.248 1.793-.742.488-.495.733-1.126.733-1.894s-.245-1.4-.733-1.894a2.42 2.42 0 00-1.793-.742c-.707 0-1.305.248-1.793.742-.488.495-.733 1.126-.733 1.894s.245 1.4.733 1.894zm6.375 1.406V7.7h1.032l3.208 5.134h.036l-.036-1.272V7.7h.848v6.6h-.886l-3.356-5.383h-.036l.036 1.271V14.3h-.846z" stroke="#fff" stroke-width=".2" stroke-miterlimit="10"/><g filter="url(#filter0_ii_17_1416)"><path d="M11.48 8.292c-.32.339-.51.864-.51 1.545v24.328c0 .682.19 1.206.51 1.545l.081.08 13.628-13.628v-.321L11.56 8.21l-.081.08z" fill="url(#paint0_linear_17_1416)"/><path d="M29.73 26.706l-4.541-4.544v-.321l4.543-4.544.102.059 5.383 3.058c1.536.873 1.536 2.302 0 3.176l-5.383 3.058-.103.058z" fill="url(#paint1_linear_17_1416)"/><g filter="url(#filter1_i_17_1416)"><path d="M29.834 26.647l-4.646-4.646-13.708 13.71c.506.536 1.343.602 2.285.068l16.07-9.132z" fill="url(#paint2_linear_17_1416)"/></g><path d="M29.834 17.355l-16.069-9.13c-.942-.536-1.78-.469-2.285.068l13.709 13.71 4.645-4.648z" fill="url(#paint3_linear_17_1416)"/></g><rect x=".5" y=".5" width="147.5" height="43" rx="4.5" stroke="#A6A6A6"/><defs><linearGradient id="paint0_linear_17_1416" x1="23.981" y1="9.58" x2="5.521" y2="28.04" gradientUnits="userSpaceOnUse"><stop stop-color="#00A0FF"/><stop offset=".007" stop-color="#00A1FF"/><stop offset=".26" stop-color="#00BEFF"/><stop offset=".512" stop-color="#00D2FF"/><stop offset=".76" stop-color="#00DFFF"/><stop offset="1" stop-color="#00E3FF"/></linearGradient><linearGradient id="paint1_linear_17_1416" x1="37.217" y1="22.001" x2="10.601" y2="22.001" gradientUnits="userSpaceOnUse"><stop stop-color="#FFE000"/><stop offset=".409" stop-color="#FFBD00"/><stop offset=".775" stop-color="orange"/><stop offset="1" stop-color="#FF9C00"/></linearGradient><linearGradient id="paint2_linear_17_1416" x1="27.311" y1="24.524" x2="2.277" y2="49.559" gradientUnits="userSpaceOnUse"><stop stop-color="#FF3A44"/><stop offset="1" stop-color="#C31162"/></linearGradient><linearGradient id="paint3_linear_17_1416" x1="8.027" y1=".194" x2="19.206" y2="11.373" gradientUnits="userSpaceOnUse"><stop stop-color="#32A071"/><stop offset=".069" stop-color="#2DA771"/><stop offset=".476" stop-color="#15CF74"/><stop offset=".801" stop-color="#06E775"/><stop offset="1" stop-color="#00F076"/></linearGradient><filter id="filter0_ii_17_1416" x="10.97" y="7.855" width="25.399" height="28.293" filterUnits="userSpaceOnUse" color-interpolation-filters="sRGB"><feFlood flood-opacity="0" result="BackgroundImageFix"/><feBlend in="SourceGraphic" in2="BackgroundImageFix" result="shape"/><feColorMatrix in="SourceAlpha" values="0 0 0 0 0 0 0 0 0 0 0 0 0 0 0 0 0 0 127 0" result="hardAlpha"/><feOffset dy="-.15"/><feComposite in2="hardAlpha" operator="arithmetic" k2="-1" k3="1"/><feColorMatrix values="0 0 0 0 0 0 0 0 0 0 0 0 0 0 0 0 0 0 0.12 0"/><feBlend in2="shape" result="effect1_innerShadow_17_1416"/><feColorMatrix in="SourceAlpha" values="0 0 0 0 0 0 0 0 0 0 0 0 0 0 0 0 0 0 127 0" result="hardAlpha"/><feOffset dy=".15"/><feComposite in2="hardAlpha" operator="arithmetic" k2="-1" k3="1"/><feColorMatrix values="0 0 0 0 1 0 0 0 0 1 0 0 0 0 1 0 0 0 0.25 0"/><feBlend in2="effect1_innerShadow_17_1416" result="effect2_innerShadow_17_1416"/></filter><filter id="filter1_i_17_1416" x="11.48" y="22.001" width="18.355" height="14.147" filterUnits="userSpaceOnUse" color-interpolation-filters="sRGB"><feFlood flood-opacity="0" result="BackgroundImageFix"/><feBlend in="SourceGraphic" in2="BackgroundImageFix" result="shape"/><feColorMatrix in="SourceAlpha" values="0 0 0 0 0 0 0 0 0 0 0 0 0 0 0 0 0 0 127 0" result="hardAlpha"/><feOffset dy="-.15"/><feComposite in2="hardAlpha" operator="arithmetic" k2="-1" k3="1"/><feColorMatrix values="0 0 0 0 0 0 0 0 0 0 0 0 0 0 0 0 0 0 0.08 0"/><feBlend in2="shape" result="effect1_innerShadow_17_1416"/></filter></defs></svg>