<svg width="132" height="44" fill="none" xmlns="http://www.w3.org/2000/svg"><rect x=".5" y=".5" width="131" height="43" rx="6.5" fill="#000"/><path d="M89.678 21.121v2.52h-1.58v1.653h1.58v5.615c0 1.918.868 2.685 3.05 2.685.384 0 .749-.046 1.069-.1v-1.635c-.275.027-.448.046-.75.046-.976 0-1.405-.457-1.405-1.498v-5.113h2.154V23.64h-2.154v-2.52h-1.964zm9.678 12.609c2.903 0 4.684-1.944 4.684-5.167 0-3.205-1.79-5.16-4.684-5.16-2.904 0-4.694 1.955-4.694 5.16 0 3.223 1.781 5.168 4.694 5.168zm0-1.743c-1.708 0-2.666-1.251-2.666-3.424 0-2.155.958-3.415 2.666-3.415 1.698 0 2.666 1.26 2.666 3.415 0 2.164-.968 3.424-2.666 3.424zm6.207 1.553h1.963v-5.872c0-1.397 1.05-2.337 2.539-2.337.347 0 .931.063 1.095.118v-1.936c-.21-.054-.584-.082-.876-.082-1.297 0-2.402.712-2.685 1.69h-.146v-1.525h-1.89v9.943zm10.472-8.465c1.452 0 2.401 1.013 2.447 2.575h-5.022c.11-1.552 1.123-2.575 2.575-2.575zm2.438 5.78c-.365.776-1.178 1.205-2.365 1.205-1.571 0-2.584-1.105-2.648-2.849v-.11h7.022v-.684c0-3.123-1.671-5.013-4.438-5.013-2.803 0-4.584 2.018-4.584 5.195 0 3.178 1.744 5.132 4.593 5.132 2.274 0 3.862-1.096 4.31-2.876h-1.89zm-41.668-.988c.15 2.442 2.186 4.003 5.214 4.003 3.237 0 5.262-1.637 5.262-4.249 0-2.054-1.155-3.19-3.956-3.842l-1.505-.37c-1.779-.416-2.498-.974-2.498-1.949 0-1.23 1.117-2.035 2.792-2.035 1.59 0 2.688.786 2.886 2.045h2.063c-.123-2.3-2.148-3.918-4.92-3.918-2.982 0-4.97 1.618-4.97 4.05 0 2.006 1.127 3.199 3.597 3.776l1.76.426c1.808.426 2.603 1.05 2.603 2.091 0 1.212-1.25 2.092-2.953 2.092-1.827 0-3.095-.823-3.275-2.12h-2.1zm-20.337-6.436c-1.35 0-2.52.676-3.122 1.808H53.2v-1.643h-1.89v13.248h1.963v-4.812h.155c.52 1.05 1.643 1.672 3.059 1.672 2.51 0 4.109-1.982 4.109-5.141 0-3.16-1.598-5.132-4.128-5.132zm-.557 8.51c-1.643 0-2.675-1.296-2.675-3.37 0-2.08 1.032-3.378 2.685-3.378 1.661 0 2.657 1.27 2.657 3.37 0 2.109-.996 3.378-2.667 3.378zm11.554-8.51c-1.352 0-2.52.676-3.123 1.808h-.146v-1.643h-1.89v13.248h1.963v-4.812h.155c.52 1.05 1.644 1.672 3.06 1.672 2.51 0 4.108-1.982 4.108-5.141 0-3.16-1.598-5.132-4.127-5.132zm-.557 8.51c-1.644 0-2.675-1.296-2.675-3.37 0-2.08 1.031-3.378 2.684-3.378 1.662 0 2.657 1.27 2.657 3.37 0 2.109-.995 3.378-2.666 3.378zM47.787 33.54h2.253l-4.931-13.657h-2.28l-4.931 13.656h2.176l1.259-3.625h5.205l1.25 3.625zM43.86 22.361h.16L46 28.135h-4.127l1.988-5.773zM39.216 9.582v6.588h2.379c1.963 0 3.1-1.21 3.1-3.315 0-2.072-1.146-3.273-3.1-3.273h-2.379zm1.023.931h1.242c1.365 0 2.173.868 2.173 2.356 0 1.511-.795 2.37-2.173 2.37h-1.242v-4.726zm7.937 5.753c1.452 0 2.342-.973 2.342-2.584 0-1.603-.894-2.58-2.342-2.58-1.451 0-2.346.977-2.346 2.58 0 1.611.89 2.584 2.346 2.584zm0-.872c-.853 0-1.333-.626-1.333-1.712 0-1.078.48-1.708 1.333-1.708.85 0 1.334.63 1.334 1.708 0 1.082-.484 1.712-1.334 1.712zm9.924-4.196h-.982l-.886 3.794h-.077l-1.023-3.794h-.94l-1.023 3.794h-.073l-.89-3.794h-.995l1.37 4.972h1.008l1.023-3.662h.077l1.028 3.662h1.018l1.365-4.972zm1.13 4.972h.982v-2.908c0-.776.46-1.26 1.187-1.26.726 0 1.073.397 1.073 1.196v2.972h.981v-3.22c0-1.182-.612-1.849-1.721-1.849-.749 0-1.242.333-1.484.886h-.073v-.79h-.945v4.972zm5.77 0h.98V9.258H65v6.912zm4.672.096c1.452 0 2.342-.973 2.342-2.584 0-1.603-.894-2.58-2.342-2.58-1.452 0-2.346.977-2.346 2.58 0 1.611.89 2.584 2.346 2.584zm0-.872c-.853 0-1.333-.626-1.333-1.712 0-1.078.48-1.708 1.333-1.708.85 0 1.333.63 1.333 1.708 0 1.082-.484 1.712-1.333 1.712zm5.267.032c-.534 0-.922-.26-.922-.708 0-.438.31-.671.995-.717l1.214-.077v.415c0 .617-.547 1.087-1.287 1.087zm-.251.826c.653 0 1.196-.283 1.493-.78h.077v.698h.945v-3.397c0-1.05-.703-1.67-1.95-1.67-1.127 0-1.93.547-2.03 1.4h.949c.11-.35.488-.552 1.036-.552.671 0 1.018.297 1.018.822v.43l-1.346.077c-1.183.073-1.85.589-1.85 1.484 0 .908.7 1.488 1.658 1.488zm5.846 0c.685 0 1.265-.324 1.562-.867h.077v.785h.94V9.258h-.98v2.73h-.074c-.27-.548-.844-.872-1.525-.872-1.255 0-2.063.995-2.063 2.566 0 1.575.799 2.57 2.063 2.57zm.279-4.255c.822 0 1.337.653 1.337 1.69 0 1.04-.51 1.684-1.337 1.684-.831 0-1.329-.635-1.329-1.69 0-1.045.503-1.684 1.329-1.684zm8.666 4.269c1.452 0 2.342-.973 2.342-2.584 0-1.603-.895-2.58-2.342-2.58-1.452 0-2.347.977-2.347 2.58 0 1.611.89 2.584 2.347 2.584zm0-.872c-.854 0-1.333-.626-1.333-1.712 0-1.078.48-1.708 1.333-1.708.85 0 1.333.63 1.333 1.708 0 1.082-.484 1.712-1.333 1.712zm3.641.776h.982v-2.908c0-.776.461-1.26 1.187-1.26s1.073.397 1.073 1.196v2.972h.981v-3.22c0-1.182-.611-1.849-1.72-1.849-.75 0-1.243.333-1.485.886h-.073v-.79h-.945v4.972zm8.744-6.21v1.26h-.79v.827h.79v2.808c0 .959.434 1.342 1.525 1.342.192 0 .374-.023.534-.05v-.817c-.137.014-.224.023-.374.023-.489 0-.703-.229-.703-.75v-2.556h1.077v-.826h-1.077V9.96h-.982zm3.377 6.21h.981v-2.904c0-.753.448-1.26 1.251-1.26.694 0 1.064.402 1.064 1.196v2.968h.981v-3.21c0-1.182-.652-1.853-1.712-1.853-.748 0-1.273.333-1.515.89h-.078v-2.74h-.972v6.913zm7.818-4.232c.726 0 1.201.506 1.224 1.287h-2.511c.055-.776.561-1.287 1.287-1.287zm1.219 2.89c-.182.388-.589.602-1.182.602-.785 0-1.292-.552-1.324-1.424v-.055h3.511v-.342c0-1.562-.836-2.507-2.219-2.507-1.402 0-2.292 1.01-2.292 2.598 0 1.589.872 2.566 2.296 2.566 1.137 0 1.932-.548 2.155-1.438h-.945zM27.246 22.33a5.488 5.488 0 012.592-4.566 5.64 5.64 0 00-4.39-2.374c-1.847-.194-3.638 1.105-4.58 1.105-.959 0-2.408-1.086-3.969-1.053a5.895 5.895 0 00-4.92 3c-2.127 3.683-.54 9.097 1.497 12.074 1.02 1.458 2.212 3.086 3.77 3.029 1.527-.064 2.096-.973 3.938-.973 1.825 0 2.36.972 3.95.936 1.637-.027 2.669-1.465 3.653-2.936a12.058 12.058 0 001.67-3.402 5.307 5.307 0 01-3.211-4.84zm-3.005-8.898a5.36 5.36 0 001.226-3.84 5.453 5.453 0 00-3.528 1.826 5.146 5.146 0 00-1.258 3.698 4.562 4.562 0 003.56-1.684z" fill="#fff"/><rect x=".5" y=".5" width="131" height="43" rx="6.5" stroke="#A6A6A6"/></svg>