<svg width="64" height="64" viewBox="0 0 64 64" fill="none" xmlns="http://www.w3.org/2000/svg">
<path fill-rule="evenodd" clip-rule="evenodd" d="M5.37296 20.5452C5.33398 20.9386 5.33398 21.4057 5.33398 22.3399V43.2007C5.33398 47.6811 5.33398 49.9213 6.20593 51.6326C6.97292 53.1379 8.19676 54.3617 9.70206 55.1287C11.4134 56.0007 13.6536 56.0007 18.134 56.0007H45.8673C50.3477 56.0007 52.5879 56.0007 54.2992 55.1287C55.8045 54.3617 57.0284 53.1379 57.7954 51.6326C58.6673 49.9213 58.6673 47.6811 58.6673 43.2007V22.3399C58.6673 21.4057 58.6673 20.9386 58.6283 20.5452C58.2524 16.7507 55.2506 13.7489 51.4561 13.373C51.0627 13.334 50.5704 13.334 49.5858 13.334C49.2064 13.334 49.0167 13.334 48.8556 13.3242C46.799 13.1997 44.9981 11.9017 44.2296 9.98998C44.1694 9.84027 44.1132 9.67151 44.0007 9.33398C43.8881 8.99646 43.8319 8.8277 43.7717 8.67799C43.0032 6.76631 41.2023 5.46829 39.1457 5.34374C38.9846 5.33398 38.8067 5.33398 38.451 5.33398H25.5504C25.1946 5.33398 25.0167 5.33398 24.8556 5.34374C22.799 5.46829 20.9981 6.76631 20.2296 8.67799C20.1694 8.8277 20.1132 8.99646 20.0007 9.33398C19.8881 9.67151 19.8319 9.84027 19.7717 9.98998C19.0032 11.9017 17.2023 13.1997 15.1457 13.3242C14.9846 13.334 14.7949 13.334 14.4155 13.334C13.4309 13.334 12.9386 13.334 12.5452 13.373C8.7507 13.7489 5.74892 16.7507 5.37296 20.5452ZM32.0007 44.0007C37.8917 44.0007 42.6673 39.225 42.6673 33.334C42.6673 27.4429 37.8917 22.6673 32.0007 22.6673C26.1096 22.6673 21.334 27.4429 21.334 33.334C21.334 39.225 26.1096 44.0007 32.0007 44.0007Z" fill="#D0E0F5"/>
</svg>
