<svg width="516" height="429" viewBox="0 0 516 429" fill="none" xmlns="http://www.w3.org/2000/svg">
<path fill-rule="evenodd" clip-rule="evenodd" d="M516 0H0V429L12.2857 412L24.5714 429L36.8571 412L49.1429 429L61.4286 412L73.7143 429L86 412L98.2857 429L110.571 412L122.857 429L135.143 412L147.429 429L159.714 412L172 429L184.286 412L196.571 429L208.857 412L221.143 429L233.429 412L245.714 429L258 412L270.286 429L282.571 412L294.857 429L307.143 412L319.429 429L331.714 412L344 429L356.286 412L368.571 429L380.857 412L393.143 429L405.429 412L417.714 429L430 412L442.286 429L454.572 412L466.857 429L479.143 412L491.429 429L503.714 412L516 429V0Z" fill="#FEF2F2"/>
</svg>
