<svg id="Слой_1" data-name="Слой 1" xmlns="http://www.w3.org/2000/svg" xmlns:xlink="http://www.w3.org/1999/xlink" viewBox="0 0 552 85"><defs><style>.cls-1{fill:#1a1a1a;}.cls-2{fill:#2b67ec;}.cls-3{fill:url(#Безымянный_градиент_7);}</style><linearGradient id="Безымянный_градиент_7" x1="73" y1="2.83" x2="115.35" y2="34.86" gradientUnits="userSpaceOnUse"><stop offset="0" stop-color="#c7dbfc"/><stop offset="1" stop-color="#2b67ec"/></linearGradient></defs><title>Монтажная область 14</title><polygon class="cls-1" points="208.18 44.74 235.51 44.74 235.51 40.38 212.48 40.38 212.48 25.81 234.75 25.81 234.75 21.52 212.48 21.52 212.48 8.13 235.51 8.13 235.51 3.83 208.18 3.83 208.18 44.74"/><path class="cls-2" d="M256.61,3.83H241V44.74h15.58c5.95,0,11-1.9,14.48-5.49s5.38-8.71,5.38-14.79c0-6.26-1.84-11.47-5.31-15.09S262.64,3.83,256.61,3.83ZM272.18,24.4c0,10-6,16.22-15.57,16.22H245.38V8h11.23C266.21,8,272.18,14.25,272.18,24.4Z"/><path class="cls-2" d="M301.74,3.42a20.13,20.13,0,0,0-14.45,6.17,21,21,0,0,0-6.06,14.81,20.67,20.67,0,0,0,6.06,14.67,20.21,20.21,0,0,0,28.9,0,20.67,20.67,0,0,0,6.06-14.67,21,21,0,0,0-6.06-14.81A20.13,20.13,0,0,0,301.74,3.42Zm16.16,21c0,9-7.4,16.51-16.16,16.51A16.59,16.59,0,0,1,285.52,24.4c0-9.08,7.43-16.74,16.22-16.74S317.9,15.32,317.9,24.4Z"/><polygon class="cls-2" points="332.12 3.83 327.83 3.83 327.83 44.74 355.16 44.74 355.16 40.38 332.12 40.38 332.12 3.83"/><path class="cls-2" d="M376.66,7.71a17.41,17.41,0,0,1,12.66,5.05l.54.57,3.09-3-.5-.55c-3.5-3.86-9.69-6.36-15.79-6.36-12,0-20.74,8.82-20.74,21s8.8,20.75,20.92,20.75a23.73,23.73,0,0,0,15.83-6.58l.21-.23V22.87H373.37v4.35h15.22v9.41a21,21,0,0,1-11.75,4.16c-9.76,0-16.57-6.74-16.57-16.39C360.27,14.58,367,7.71,376.66,7.71Z"/><rect class="cls-2" x="399.22" y="3.83" width="4.29" height="40.9"/><path class="cls-2" d="M413.45,40.27A2.41,2.41,0,0,0,411,42.79a2.47,2.47,0,0,0,4.94,0A2.41,2.41,0,0,0,413.45,40.27Z"/><path class="cls-2" d="M449.76,24.51a12.86,12.86,0,0,0,2.3-8c0-8.27-5.23-12.64-15.11-12.64h-14V44.74h4.35V29.16H437c.79,0,1.49,0,2.18,0L449,44.74h5.16L443.8,28.34A11.2,11.2,0,0,0,449.76,24.51Zm-2-8.1c0,3.09-.86,5.27-2.63,6.66s-4.42,2-8.18,2h-9.69V8H437C444.23,8,447.76,10.72,447.76,16.41Z"/><path class="cls-2" d="M486.25,3.83l.06,24.91c-.11,7.14-5.07,11.94-12.34,11.94-7.9,0-12.8-4.6-12.8-12V3.83H457l.06,24.92a16.18,16.18,0,0,0,4.32,11.62c3,3.05,7.29,4.66,12.49,4.66,4.95,0,9.12-1.57,12.07-4.54a16.24,16.24,0,0,0,4.44-11.74l.06-24.92Z"/><path class="cls-1" d="M217.6,73.12a4.32,4.32,0,0,1-3.19,1.41,4.28,4.28,0,0,1,0-8.56,4.33,4.33,0,0,1,3.16,1.4l.29.33,1.34-1.33-.28-.3a6.15,6.15,0,1,0-4.51,10.32,6.22,6.22,0,0,0,4.53-2l.28-.3-1.32-1.32Z"/><path class="cls-1" d="M226.09,64.11a6.14,6.14,0,0,0,0,12.28,5.89,5.89,0,0,0,5.19-3l.27-.47-1.82-.49-.17.26a3.88,3.88,0,0,1-3.47,1.91,4,4,0,0,1-4-3.48h10v-.42c0-.06,0-.1,0-.15a1.65,1.65,0,0,0,0-.27A6,6,0,0,0,226.09,64.11Zm0,1.79a4,4,0,0,1,4,3.51h-8A4.06,4.06,0,0,1,226.09,65.9Z"/><path class="cls-1" d="M240.18,64.06A5.8,5.8,0,0,0,235.7,66V64.22h-1.91V79.59h1.91V74.48a6,6,0,0,0,4.48,1.87A5.86,5.86,0,0,0,246,70.18,6,6,0,0,0,240.18,64.06Zm-.33,1.84a4.16,4.16,0,0,1,4.23,4.28,4.36,4.36,0,0,1-1.22,3.15,4.09,4.09,0,0,1-3,1.16c-2.06,0-4.15-1.71-4.15-3.39V69.56A4,4,0,0,1,239.85,65.9Z"/><path class="cls-1" d="M256.64,70.16A2.79,2.79,0,0,0,258,67.79c0-2.2-1.72-3.57-4.47-3.57h-5.72v12h5.94c2.58,0,4.51-1.49,4.51-3.46A2.93,2.93,0,0,0,256.64,70.16Zm-7-.8V66h3.81c1.63,0,2.6.65,2.6,1.75,0,.91-1.09,1.57-2.6,1.57Zm6.64,3.39c0,.8-1,1.67-2.61,1.67h-4V71.14h4C255,71.14,256.32,71.56,256.32,72.75Z"/><polygon class="cls-1" points="261.58 73.07 261.58 64.22 259.69 64.22 259.69 76.23 261.36 76.23 268.84 67.38 268.84 76.23 270.75 76.23 270.75 64.22 269.07 64.22 261.58 73.07"/><path class="cls-1" d="M282,73.12a4.32,4.32,0,0,1-3.19,1.41,4.28,4.28,0,0,1,0-8.56,4.32,4.32,0,0,1,3.15,1.4l.29.33,1.34-1.33-.27-.3a6.15,6.15,0,1,0-4.51,10.32,6.25,6.25,0,0,0,4.53-2l.28-.3-1.33-1.32Z"/><path class="cls-1" d="M294.38,64.11a6.14,6.14,0,0,0-4.51,2l-.27.3,1.33,1.33.3-.33a4.25,4.25,0,0,1,7.31,1.95h-5.43V71h5.47a4.28,4.28,0,0,1-7.39,2.12l-.29-.31-1.33,1.32.28.3a6.24,6.24,0,0,0,4.53,2,6.14,6.14,0,1,0,0-12.28Z"/><path class="cls-1" d="M303.92,71.26c0,.7,0,2.85-.49,3.06a1,1,0,0,1-.37.08,3,3,0,0,1-1.3-.43l-.53-.27-.28,2,.27.13a4.44,4.44,0,0,0,1.95.53c2.63,0,2.63-2.95,2.63-4.37V66.1h5.79V76.26h1.91v-12h-9.58Z"/><path class="cls-1" d="M321.36,64.11a6.14,6.14,0,0,0,0,12.28,5.91,5.91,0,0,0,5.19-3l.27-.47L325,72.38l-.16.26a3.88,3.88,0,0,1-3.47,1.91,4,4,0,0,1-4-3.48h10v-.42c0-.06,0-.1,0-.15a1.94,1.94,0,0,0,0-.27A6,6,0,0,0,321.36,64.11Zm0,1.79a4,4,0,0,1,4,3.51h-8A4.05,4.05,0,0,1,321.36,65.9Z"/><polygon class="cls-1" points="338.24 64.22 335.64 64.22 330.63 69.03 330.63 64.22 328.73 64.22 328.73 76.23 330.63 76.23 330.63 71.42 336.24 76.23 338.91 76.23 331.89 70.25 338.24 64.22"/><polygon class="cls-1" points="338.66 66.1 343.04 66.1 343.04 76.23 344.93 76.23 344.93 66.1 349.4 66.1 349.4 64.22 338.66 64.22 338.66 66.1"/><path class="cls-1" d="M357.15,64.06a5.84,5.84,0,0,0-4.49,1.9V64.22h-1.9V79.59h1.9V74.48a6,6,0,0,0,4.49,1.87,5.85,5.85,0,0,0,5.78-6.17A6,6,0,0,0,357.15,64.06Zm-.34,1.84a4.17,4.17,0,0,1,4.24,4.28,4.36,4.36,0,0,1-1.22,3.15,4.1,4.1,0,0,1-3,1.16c-2.05,0-4.15-1.71-4.15-3.39V69.56A4,4,0,0,1,356.81,65.9Z"/><path class="cls-1" d="M370.52,64.11a6.14,6.14,0,1,0,6.17,6.16A6.16,6.16,0,0,0,370.52,64.11Zm4.28,6.16a4.27,4.27,0,1,1-4.28-4.37A4.3,4.3,0,0,1,374.8,70.27Z"/><polygon class="cls-1" points="386.39 69.19 380.16 69.2 380.16 64.22 378.25 64.22 378.25 76.23 380.16 76.23 380.16 71.11 386.39 71.09 386.39 76.23 388.28 76.23 388.28 64.22 386.39 64.22 386.39 69.19"/><polygon class="cls-1" points="398.36 69.19 392.12 69.2 392.12 64.22 390.22 64.22 390.22 76.23 392.12 76.23 392.12 71.11 398.36 71.09 398.36 76.23 400.24 76.23 400.24 64.22 398.36 64.22 398.36 69.19"/><path class="cls-1" d="M406.11,67.3h-2V64.22h-1.9v12h3.88c3.45,0,5.59-1.73,5.59-4.51S409.61,67.3,406.11,67.3Zm3.68,4.4c0,2.35-2.3,2.7-3.68,2.7h-2V69.14h2C407.79,69.14,409.79,69.59,409.79,71.7Z"/><rect class="cls-1" x="412.72" y="64.22" width="1.91" height="12.02"/><polygon class="cls-1" points="424.68 64.22 421.05 68.75 417.43 64.22 415.06 64.22 419.87 70.23 415.06 76.23 417.43 76.23 421.05 71.7 424.68 76.23 427.04 76.23 422.24 70.23 427.04 64.22 424.68 64.22"/><path class="cls-1" d="M438.38,73.51l-4.08-9.29h-2.08l5.2,11.61,0,.08c-.46,1.13-1.41,3.46-3.06,3.8l-.4.07.29,1.8.41-.07c2.79-.48,4-3.57,4.52-5.05l.18-.48,5-11.76h-2.05Z"/><path class="cls-1" d="M453.86,73.12a4.32,4.32,0,0,1-3.19,1.41,4.28,4.28,0,0,1,0-8.56,4.32,4.32,0,0,1,3.15,1.4l.3.33,1.33-1.33-.27-.3a6.15,6.15,0,1,0-4.51,10.32,6.24,6.24,0,0,0,4.53-2l.28-.3-1.33-1.32Z"/><path class="cls-1" d="M458.69,71.26c0,.7,0,2.85-.49,3.06a1,1,0,0,1-.37.08,3,3,0,0,1-1.3-.43L456,73.7l-.28,2,.27.13a4.44,4.44,0,0,0,1.95.53c2.63,0,2.63-2.95,2.63-4.37V66.1h5.79V76.26h1.91v-12h-9.58Z"/><path class="cls-1" d="M475.33,73.51l-4.08-9.29h-2.08l5.21,11.61,0,.08c-.46,1.13-1.41,3.46-3.06,3.8l-.39.07.28,1.8.42-.07c2.79-.48,4-3.57,4.51-5.05.07-.19.13-.35.19-.48l5-11.76h-2Z"/><polygon class="cls-1" points="482.11 64.22 482.11 76.23 484.01 76.23 484.01 66.03 490.5 66.03 490.5 64.22 482.11 64.22"/><path class="cls-3" d="M180.18,25.27A38.38,38.38,0,0,0,144.79,1.81h-9a9.07,9.07,0,0,0-9.07,9.07h.06V42.77a26.73,26.73,0,0,1-26.6,26.77A29.57,29.57,0,0,1,70.57,40c0-17,11.3-29.36,26.91-29.54a13.19,13.19,0,0,1,12.9,12.23,13,13,0,0,1-3.46,9.88,13.27,13.27,0,0,1-9.82,4.19H87.17a4.53,4.53,0,0,0,0,9.06H97.1a22.55,22.55,0,0,0,9.13-1.89A22.22,22.22,0,0,0,97.83,1.4h-.57A36.06,36.06,0,0,0,83.07,4.46a34.48,34.48,0,0,0-11.55,8.4A40.1,40.1,0,0,0,61.5,40a38.59,38.59,0,0,0,38.61,38.61,35.7,35.7,0,0,0,35.73-35.73V14.56a3.68,3.68,0,0,1,3.68-3.68h5.27a29.34,29.34,0,0,1,1.11,58.66l-.14-2.43a2,2,0,0,0-3.14-1.58l-12,7.88a2,2,0,0,0,.2,3.51l12.83,6.47a2,2,0,0,0,2.94-1.93l-.16-2.86a38.43,38.43,0,0,0,33.77-53.33Z"/></svg>