<svg id="Слой_1" data-name="Слой 1" xmlns="http://www.w3.org/2000/svg" xmlns:xlink="http://www.w3.org/1999/xlink" viewBox="0 0 32 32"><defs><style>.cls-1{fill:url(#Безымянный_градиент_7);}</style><linearGradient id="Безымянный_градиент_7" x1="3.43" y1="5.9" x2="14.22" y2="14.05" gradientUnits="userSpaceOnUse"><stop offset="0" stop-color="#c7dbfc"/><stop offset="1" stop-color="#2b67ec"/></linearGradient></defs><title>Монтажная область 12</title><path class="cls-1" d="M30.73,11.61A9.86,9.86,0,0,0,25.52,6.4a9.66,9.66,0,0,0-3.8-.76h-2.3a2.3,2.3,0,0,0-2.31,2.3h0v8.13a6.81,6.81,0,0,1-6.78,6.82,7.53,7.53,0,0,1-7.54-7.53c0-4.33,2.88-7.48,6.86-7.52a3.35,3.35,0,0,1-.1,6.7H7a1.16,1.16,0,1,0,0,2.31H9.57a5.81,5.81,0,0,0,4.19-1.8,5.67,5.67,0,0,0,1.17-1.92,5.71,5.71,0,0,0-1.45-6.07A5.65,5.65,0,0,0,9.75,5.53H9.61A9.22,9.22,0,0,0,6,6.31,8.94,8.94,0,0,0,3.05,8.45,10.24,10.24,0,0,0,.5,15.36a9.81,9.81,0,0,0,.77,3.83,10,10,0,0,0,2.11,3.13,9.91,9.91,0,0,0,7,2.88,9.09,9.09,0,0,0,6.44-2.67,9.09,9.09,0,0,0,2.67-6.43V8.88a.94.94,0,0,1,.93-.94h1.35a7.48,7.48,0,0,1,.28,15l0-.62a.51.51,0,0,0-.8-.4l-3.06,2a.53.53,0,0,0,0,.9l3.27,1.65a.52.52,0,0,0,.75-.5l0-.72a9.89,9.89,0,0,0,3.39-.76,9.8,9.8,0,0,0,5.21-12.83Z"/></svg>