<svg width="31" height="24" viewBox="0 0 31 24" fill="none" xmlns="http://www.w3.org/2000/svg">
<g clip-path="url(#clip0_342_3581)">
<path d="M5.60086 23.9474V22.3546C5.60086 21.7454 5.22973 21.3464 4.59262 21.3464C4.27406 21.3464 3.92767 21.4515 3.68952 21.7979C3.50396 21.5072 3.23798 21.3464 2.83901 21.3464C2.57303 21.3464 2.30705 21.4268 2.09674 21.7175V21.399H1.54004V23.9474H2.09674V22.5402C2.09674 22.0887 2.33488 21.8753 2.70602 21.8753C3.07715 21.8753 3.26272 22.1134 3.26272 22.5402V23.9474H3.81942V22.5402C3.81942 22.0887 4.0854 21.8753 4.4287 21.8753C4.79983 21.8753 4.9854 22.1134 4.9854 22.5402V23.9474H5.60086ZM13.8586 21.399H12.9555V20.6289H12.3988V21.399H11.8947V21.9031H12.3988V23.0722C12.3988 23.6567 12.6369 24 13.2741 24C13.5122 24 13.7782 23.9196 13.9638 23.8144L13.8029 23.335C13.6421 23.4402 13.4565 23.468 13.3235 23.468C13.0576 23.468 12.9524 23.3072 12.9524 23.0443V21.9031H13.8555V21.399H13.8586ZM18.5844 21.3433C18.2658 21.3433 18.0524 21.5041 17.9194 21.7144V21.3959H17.3627V23.9443H17.9194V22.5093C17.9194 22.0856 18.105 21.8443 18.4514 21.8443C18.5565 21.8443 18.6895 21.8722 18.7978 21.8969L18.9586 21.3649C18.8473 21.3433 18.6895 21.3433 18.5844 21.3433ZM11.4431 21.6093C11.1772 21.4237 10.806 21.3433 10.4071 21.3433C9.76994 21.3433 9.34622 21.6619 9.34622 22.166C9.34622 22.5897 9.66478 22.8309 10.2215 22.9082L10.4875 22.9361C10.7782 22.9887 10.939 23.0691 10.939 23.2021C10.939 23.3876 10.7256 23.5206 10.3545 23.5206C9.98334 23.5206 9.68952 23.3876 9.50396 23.2546L9.23798 23.6783C9.5287 23.8917 9.92767 23.9969 10.3266 23.9969C11.0689 23.9969 11.4957 23.6505 11.4957 23.1742C11.4957 22.7227 11.1493 22.4845 10.6205 22.4041L10.3545 22.3763C10.1163 22.3484 9.93076 22.2959 9.93076 22.1381C9.93076 21.9526 10.1163 21.8474 10.4101 21.8474C10.7287 21.8474 11.0473 21.9804 11.2081 22.0608L11.4431 21.6093ZM26.2545 21.3433C25.9359 21.3433 25.7225 21.5041 25.5895 21.7144V21.3959H25.0328V23.9443H25.5895V22.5093C25.5895 22.0856 25.7751 21.8443 26.1215 21.8443C26.2266 21.8443 26.3596 21.8722 26.4679 21.8969L26.6287 21.3711C26.5205 21.3433 26.3627 21.3433 26.2545 21.3433ZM19.1411 22.6732C19.1411 23.4433 19.673 24 20.4957 24C20.8668 24 21.1328 23.9196 21.3988 23.7093L21.1328 23.2577C20.9194 23.4186 20.7091 23.4959 20.4679 23.4959C20.0163 23.4959 19.6978 23.1773 19.6978 22.6732C19.6978 22.1938 20.0163 21.8753 20.4679 21.8505C20.706 21.8505 20.9194 21.9309 21.1328 22.0887L21.3988 21.6371C21.1328 21.4237 20.8668 21.3464 20.4957 21.3464C19.673 21.3433 19.1411 21.9031 19.1411 22.6732ZM24.2906 22.6732V21.399H23.7339V21.7175C23.5483 21.4794 23.2823 21.3464 22.9359 21.3464C22.2184 21.3464 21.6617 21.9031 21.6617 22.6732C21.6617 23.4433 22.2184 24 22.9359 24C23.307 24 23.573 23.867 23.7339 23.6289V23.9474H24.2906V22.6732ZM22.2462 22.6732C22.2462 22.2216 22.5369 21.8505 23.0163 21.8505C23.4679 21.8505 23.7864 22.1969 23.7864 22.6732C23.7864 23.1247 23.4679 23.4959 23.0163 23.4959C22.54 23.468 22.2462 23.1216 22.2462 22.6732ZM15.5844 21.3433C14.8421 21.3433 14.3101 21.8753 14.3101 22.6701C14.3101 23.468 14.8421 23.9969 15.6122 23.9969C15.9833 23.9969 16.3545 23.8917 16.6483 23.6505L16.3823 23.2515C16.1689 23.4124 15.9029 23.5175 15.64 23.5175C15.2936 23.5175 14.9503 23.3567 14.8699 22.9082H16.7534C16.7534 22.8278 16.7534 22.7753 16.7534 22.6948C16.7782 21.8753 16.2988 21.3433 15.5844 21.3433ZM15.5844 21.8227C15.9308 21.8227 16.1689 22.0361 16.2215 22.432H14.8947C14.9473 22.0887 15.1854 21.8227 15.5844 21.8227ZM29.4153 22.6732V20.3907H28.8586V21.7175C28.673 21.4794 28.407 21.3464 28.0607 21.3464C27.3431 21.3464 26.7864 21.9031 26.7864 22.6732C26.7864 23.4433 27.3431 24 28.0607 24C28.4318 24 28.6978 23.867 28.8586 23.6289V23.9474H29.4153V22.6732ZM27.371 22.6732C27.371 22.2216 27.6617 21.8505 28.1411 21.8505C28.5926 21.8505 28.9112 22.1969 28.9112 22.6732C28.9112 23.1247 28.5926 23.4959 28.1411 23.4959C27.6617 23.468 27.371 23.1216 27.371 22.6732ZM8.73385 22.6732V21.399H8.17715V21.7175C7.99159 21.4794 7.72561 21.3464 7.37921 21.3464C6.66169 21.3464 6.10499 21.9031 6.10499 22.6732C6.10499 23.4433 6.66169 24 7.37921 24C7.75035 24 8.01633 23.867 8.17715 23.6289V23.9474H8.73385V22.6732ZM6.66478 22.6732C6.66478 22.2216 6.9555 21.8505 7.43488 21.8505C7.88643 21.8505 8.20499 22.1969 8.20499 22.6732C8.20499 23.1247 7.88643 23.4959 7.43488 23.4959C6.9555 23.468 6.66478 23.1216 6.66478 22.6732Z" fill="black"/>
<path d="M19.6207 2.04434H11.2578V17.0691H19.6207V2.04434Z" fill="#FF5A00"/>
<path d="M11.8144 9.5567C11.8144 6.50412 13.2495 3.79485 15.4515 2.04433C13.8309 0.770103 11.7866 0 9.5567 0C4.27423 0 0 4.27423 0 9.5567C0 14.8392 4.27423 19.1134 9.5567 19.1134C11.7866 19.1134 13.8309 18.3433 15.4515 17.0691C13.2464 15.3433 11.8144 12.6093 11.8144 9.5567Z" fill="#EB001B"/>
<path d="M30.9027 9.5567C30.9027 14.8392 26.6285 19.1134 21.346 19.1134C19.1161 19.1134 17.0718 18.3433 15.4512 17.0691C17.6811 15.3155 19.0883 12.6093 19.0883 9.5567C19.0883 6.50412 17.6532 3.79485 15.4512 2.04433C17.0687 0.770103 19.113 0 21.3429 0C26.6285 0 30.9027 4.30206 30.9027 9.5567Z" fill="#F79E1B"/>
</g>
<defs>
<clipPath id="clip0_342_3581">
<rect width="30.9031" height="24" fill="white"/>
</clipPath>
</defs>
</svg>
