<svg width="44" height="13" viewBox="0 0 44 13" fill="none" xmlns="http://www.w3.org/2000/svg">
<path fill-rule="evenodd" clip-rule="evenodd" d="M6.88471 1.4101C7.22539 1.40806 8.23787 1.31687 8.66673 2.7643C8.95562 3.7393 9.4158 5.33639 10.0473 7.55558H10.3045C10.9817 5.21596 11.4469 3.61886 11.7001 2.7643C12.1334 1.3018 13.2167 1.41013 13.6501 1.41013L16.9933 1.41013V11.8101H13.5858V5.68123H13.3573L11.4577 11.8101H8.89399L6.99445 5.67669H6.76595V11.8101H3.3584V1.41013L6.88471 1.4101ZM21.8865 1.41013V7.54358H22.1583L24.469 2.50009C24.9175 1.49642 25.8735 1.41013 25.8735 1.41013H29.171V11.8101H25.6922V5.67669H25.4204L23.1551 10.7202C22.7066 11.7193 21.7053 11.8101 21.7053 11.8101H18.4078V1.41013H21.8865ZM41.195 6.35228C40.7097 7.72735 39.1858 8.71213 37.4987 8.71213H33.8506V11.8101H30.5425V6.35228H41.195Z" fill="#0F754E"/>
<path fill-rule="evenodd" clip-rule="evenodd" d="M37.6583 1.41013H30.3691C30.5426 3.72552 32.5366 5.70764 34.6007 5.70764H41.4249C41.8187 3.78328 40.463 1.41013 37.6583 1.41013Z" fill="url(#paint0_linear_342_3587)"/>
<defs>
<linearGradient id="paint0_linear_342_3587" x1="41.4918" y1="4.11345" x2="30.3691" y2="4.11345" gradientUnits="userSpaceOnUse">
<stop stop-color="#1F5CD7"/>
<stop offset="1" stop-color="#02AEFF"/>
</linearGradient>
</defs>
</svg>
