<svg width="32" height="17" viewBox="0 0 32 17" fill="none" xmlns="http://www.w3.org/2000/svg">
<path d="M7.45796 3C8.01024 3 8.45796 3.44772 8.45796 4V13.2941C8.45796 13.8464 8.01024 14.2941 7.45796 14.2941H7.16846C6.8221 14.2941 6.5004 14.1149 6.31813 13.8204L2.22595 7.2082C2.21728 7.19419 2.20198 7.18566 2.18551 7.18566C2.15924 7.18566 2.13794 7.20696 2.13794 7.23323V13.2941C2.13794 13.8464 1.69023 14.2941 1.13794 14.2941H1C0.447715 14.2941 0 13.8464 0 13.2941V4C0 3.44771 0.447715 3 1 3H1.31704C1.66453 3 1.9871 3.18039 2.16903 3.47645L6.22432 10.0758C6.23469 10.0927 6.25308 10.1029 6.27289 10.1029C6.30437 10.1029 6.32989 10.0774 6.32989 10.0459V4C6.32989 3.44772 6.7776 3 7.32989 3H7.45796Z" fill="#2563EB"/>
<path d="M11.2243 14.2941C10.6721 14.2941 10.2243 13.8464 10.2243 13.2941V4C10.2243 3.44771 10.6721 3 11.2243 3H16.0537C16.5974 3 17.0381 3.44072 17.0381 3.98438C17.0381 4.52803 16.5974 4.96875 16.0537 4.96875H13.3623C12.81 4.96875 12.3623 5.41647 12.3623 5.96875V6.65993C12.3623 7.21221 12.81 7.65993 13.3623 7.65993H15.7032C16.2468 7.65993 16.6875 8.10065 16.6875 8.6443C16.6875 9.18796 16.2468 9.62868 15.7032 9.62868H13.3623C12.81 9.62868 12.3623 10.0764 12.3623 10.6287V11.3254C12.3623 11.8777 12.81 12.3254 13.3623 12.3254H16.0735C16.6171 12.3254 17.0579 12.7661 17.0579 13.3097C17.0579 13.8534 16.6171 14.2941 16.0735 14.2941H11.2243Z" fill="#2563EB"/>
<path d="M21.7902 14.2941C21.3335 14.2941 20.9348 13.9847 20.8214 13.5423L18.4404 4.24817C18.2784 3.61563 18.7562 3 19.4091 3H19.6469C20.1188 3 20.5265 3.32989 20.6249 3.7914L22.1211 10.8059C22.1262 10.8301 22.1476 10.8474 22.1723 10.8474C22.1967 10.8474 22.2178 10.8307 22.2234 10.807L23.8791 3.77094C23.9854 3.31923 24.3884 3 24.8525 3H25.2673C25.7318 3 26.1351 3.31977 26.241 3.77198L27.8918 10.8212C27.8977 10.8462 27.9201 10.864 27.9458 10.864C27.972 10.864 27.9946 10.8457 28.0001 10.8201L29.496 3.79182C29.5943 3.33011 30.0021 3 30.4741 3H30.7115C31.3645 3 31.8423 3.61563 31.6802 4.24817L29.2992 13.5423C29.1859 13.9847 28.7872 14.2941 28.3305 14.2941H27.7957C27.3406 14.2941 26.9429 13.9868 26.828 13.5465L25.1073 6.94814C25.1015 6.92563 25.0811 6.90993 25.0579 6.90993C25.0346 6.90993 25.0143 6.92565 25.0084 6.94817L23.2923 13.5459C23.1777 13.9865 22.7798 14.2941 22.3245 14.2941H21.7902Z" fill="#2563EB"/>
</svg>
