<svg xmlns="http://www.w3.org/2000/svg" display="none">

	<symbol id="search" viewBox="0 0 24 24">
		<path
			d="M21 21L16.65 16.65M19 11C19 15.4183 15.4183 19 11 19C6.58172 19 3 15.4183 3 11C3 6.58172 6.58172 3 11 3C15.4183 3 19 6.58172 19 11Z"
			stroke-width="2" stroke-linecap="round" stroke-linejoin="round" />
	</symbol>

	<symbol id="burger" viewBox="0 0 24 24">
		<path d="M3 12H17M3 6H21M3 18H21" stroke-width="2" stroke-linecap="round" stroke-linejoin="round" />
	</symbol>

	<symbol id="phone" viewBox="0 0 24 24">
		<path
			d="M22 16.92V19.92C22.0011 20.1985 21.9441 20.4741 21.8325 20.7293C21.7209 20.9845 21.5573 21.2136 21.3521 21.4018C21.1468 21.5901 20.9046 21.7335 20.6407 21.8227C20.3769 21.9119 20.0974 21.945 19.82 21.92C16.7428 21.5856 13.787 20.5341 11.19 18.85C8.77382 17.3146 6.72533 15.2661 5.18999 12.85C3.49997 10.2412 2.44824 7.27097 2.11999 4.17997C2.095 3.90344 2.12787 3.62474 2.21649 3.3616C2.30512 3.09846 2.44756 2.85666 2.63476 2.6516C2.82196 2.44653 3.0498 2.28268 3.30379 2.1705C3.55777 2.05831 3.83233 2.00024 4.10999 1.99997H7.10999C7.5953 1.9952 8.06579 2.16705 8.43376 2.48351C8.80173 2.79996 9.04207 3.23942 9.10999 3.71997C9.23662 4.68004 9.47144 5.6227 9.80999 6.52997C9.94454 6.8879 9.97366 7.27689 9.8939 7.65086C9.81415 8.02482 9.62886 8.36809 9.35999 8.63998L8.08999 9.90997C9.51355 12.4135 11.5864 14.4864 14.09 15.91L15.36 14.64C15.6319 14.3711 15.9751 14.1858 16.3491 14.1061C16.7231 14.0263 17.1121 14.0554 17.47 14.19C18.3773 14.5285 19.3199 14.7634 20.28 14.89C20.7658 14.9585 21.2094 15.2032 21.5265 15.5775C21.8437 15.9518 22.0122 16.4296 22 16.92Z"
			stroke-width="2" stroke-linecap="round" stroke-linejoin="round" />
	</symbol>

	<symbol id="chevron-down" viewBox="0 0 16 17">
		<path d="M4 10.5L8 6.5L12 10.5" stroke-width="2" stroke-linecap="round" stroke-linejoin="round" />
	</symbol>


	<symbol id="arrow-top" viewBox="0 0 34 18">
		<path d="M32 16.5L17 1.5L2 16.5" stroke-width="3" stroke-linecap="round" stroke-linejoin="round" />
	</symbol>

	<symbol id="arrow-left" viewBox="0 0 32 32">
		<path d="M20 8L12 16L20 24" stroke-width="2" stroke-linecap="round" stroke-linejoin="round" />
	</symbol>

	<symbol id="prev" viewBox="0 0 24 24">
		<path d="M15 18L9 12L15 6" stroke-width="2" stroke-linecap="round" stroke-linejoin="round" />
	</symbol>

	<symbol id="next" viewBox="0 0 24 24">
		<path d="M9 18L15 12L9 6" stroke-width="2" stroke-linecap="round" stroke-linejoin="round" />
	</symbol>

	<symbol id="ok" viewBox="0 0 32 32">
		<path
			d="M16 16.6399C13.184 16.6399 10.88 14.3359 10.88 11.5199C10.88 8.7039 13.184 6.3999 16 6.3999C18.816 6.3999 21.12 8.7039 21.12 11.5199C21.12 14.3359 18.816 16.6399 16 16.6399ZM16 8.8319C14.528 8.8319 13.312 10.0479 13.312 11.5199C13.312 12.9919 14.528 14.2079 16 14.2079C17.472 14.2079 18.688 12.9919 18.688 11.5199C18.688 10.0479 17.472 8.8319 16 8.8319Z" />
		<path
			d="M21.504 17.1521C21.056 16.5761 20.288 16.5121 19.712 16.8961C19.712 16.8961 18.304 17.9201 16 17.9201C13.696 17.9201 12.288 16.8961 12.288 16.8961C11.712 16.4481 10.944 16.5761 10.496 17.1521C10.048 17.7281 10.176 18.4961 10.752 18.9441C10.816 19.0081 12.16 20.0321 14.4 20.3521L11.008 23.8081C10.496 24.3201 10.496 25.1521 11.008 25.6001C11.264 25.8561 11.584 25.9841 11.904 25.9841C12.224 25.9841 12.544 25.8561 12.8 25.6001L16 22.3361L19.2 25.6001C19.456 25.8561 19.776 25.9841 20.096 25.9841C20.416 25.9841 20.736 25.8561 20.992 25.6001C21.504 25.0881 21.504 24.3201 20.992 23.8081L17.6 20.3521C19.84 19.9681 21.184 18.9441 21.248 18.9441C21.824 18.4961 21.952 17.6641 21.504 17.1521Z" />
	</symbol>

	<symbol id="youtube" viewBox="0 0 32 32">
		<path
			d="M25.408 11.904C25.408 11.904 25.216 10.56 24.64 9.98396C23.936 9.21596 23.104 9.21596 22.72 9.15196C20.032 8.95996 16 8.95996 16 8.95996C16 8.95996 11.968 8.95996 9.28002 9.15196C8.89602 9.21596 8.06402 9.21596 7.36002 9.98396C6.78402 10.56 6.59202 11.904 6.59202 11.904C6.59202 11.904 6.40002 13.44 6.40002 14.976V16.384C6.40002 17.92 6.59202 19.52 6.59202 19.52C6.59202 19.52 6.78402 20.864 7.36002 21.44C8.06402 22.208 9.02402 22.208 9.47202 22.272C11.008 22.336 16 22.4 16 22.4C16 22.4 20.032 22.4 22.72 22.208C23.104 22.144 23.936 22.144 24.64 21.376C25.216 20.8 25.408 19.456 25.408 19.456C25.408 19.456 25.6 17.92 25.6 16.384V14.976C25.6 13.44 25.408 11.904 25.408 11.904ZM14.016 18.176V12.8L19.2 15.488L14.016 18.176Z" />
	</symbol>

	<symbol id="mail" viewBox="0 0 24 24">
		<path
			d="M22 6C22 4.9 21.1 4 20 4H4C2.9 4 2 4.9 2 6M22 6V18C22 19.1 21.1 20 20 20H4C2.9 20 2 19.1 2 18V6M22 6L12 13L2 6"
			stroke-width="2" stroke-linecap="round" stroke-linejoin="round" />
	</symbol>

	<symbol id="tg" viewBox="0 0 24 24">
		<path d="M21 5L2 12.5L9 13.5M21 5L18.5 20L9 13.5M21 5L9 13.5M9 13.5V19L12.249 15.723" stroke-width="1.5"
			stroke-linecap="round" stroke-linejoin="round" />
	</symbol>

	<symbol id="close" viewBox="0 0 24 24">
		<path d="M18 6L6 18M6 6L18 18" stroke-width="2" stroke-linecap="round" stroke-linejoin="round" />
	</symbol>

	<symbol id="question-icon" viewBox="0 0 16 16">
		<g>
			<path
				d="M6.06065 6C6.21739 5.55444 6.52675 5.17873 6.93395 4.93942C7.34116 4.7001 7.81991 4.61262 8.28544 4.69247C8.75096 4.77232 9.1732 5.01434 9.47737 5.37568C9.78154 5.73702 9.94802 6.19434 9.94732 6.66666C9.94732 8 7.94732 8.66666 7.94732 8.66666M8.00065 11.3333H8.00732M14.6673 8C14.6673 11.6819 11.6826 14.6667 8.00065 14.6667C4.31875 14.6667 1.33398 11.6819 1.33398 8C1.33398 4.3181 4.31875 1.33333 8.00065 1.33333C11.6826 1.33333 14.6673 4.3181 14.6673 8Z"
				stroke="#2563EB" stroke-width="2" stroke-linecap="round" stroke-linejoin="round" />
		</g>
	</symbol>

	<symbol id="calendar" viewBox="0 0 20 20">
		<path
			d="M13.3333 1.66666V4.99999M6.66667 1.66666V4.99999M2.5 8.33332H17.5M4.16667 3.33332H15.8333C16.7538 3.33332 17.5 4.07952 17.5 4.99999V16.6667C17.5 17.5871 16.7538 18.3333 15.8333 18.3333H4.16667C3.24619 18.3333 2.5 17.5871 2.5 16.6667V4.99999C2.5 4.07952 3.24619 3.33332 4.16667 3.33332Z"
			stroke-width="1.66667" stroke-linecap="round" stroke-linejoin="round" />
	</symbol>

	<symbol id="location" viewBox="0 0 20 20">
		<path
			d="M17.5 8.33334C17.5 14.1667 10 19.1667 10 19.1667C10 19.1667 2.5 14.1667 2.5 8.33334C2.5 6.34422 3.29018 4.43656 4.6967 3.03004C6.10322 1.62352 8.01088 0.833344 10 0.833344C11.9891 0.833344 13.8968 1.62352 15.3033 3.03004C16.7098 4.43656 17.5 6.34422 17.5 8.33334Z"
			stroke-width="1.66667" stroke-linecap="round" stroke-linejoin="round" />
		<path
			d="M10 10.8333C11.3807 10.8333 12.5 9.71405 12.5 8.33334C12.5 6.95263 11.3807 5.83334 10 5.83334C8.61929 5.83334 7.5 6.95263 7.5 8.33334C7.5 9.71405 8.61929 10.8333 10 10.8333Z"
			stroke-width="1.66667" stroke-linecap="round" stroke-linejoin="round" />
	</symbol>

	<symbol id="user-icon" viewBox="0 0 20 20">
		<path
			d="M16.6667 17.5V15.8333C16.6667 14.9493 16.3155 14.1014 15.6903 13.4763C15.0652 12.8512 14.2174 12.5 13.3333 12.5H6.66666C5.78261 12.5 4.93476 12.8512 4.30964 13.4763C3.68452 14.1014 3.33333 14.9493 3.33333 15.8333V17.5M13.3333 5.83333C13.3333 7.67428 11.8409 9.16667 9.99999 9.16667C8.15905 9.16667 6.66666 7.67428 6.66666 5.83333C6.66666 3.99238 8.15905 2.5 9.99999 2.5C11.8409 2.5 13.3333 3.99238 13.3333 5.83333Z"
			stroke-width="1.66667" stroke-linecap="round" stroke-linejoin="round" />
	</symbol>

	<symbol id="case" viewBox="0 0 20 20">
		<path
			d="M13.3332 17.5V4.16667C13.3332 3.72464 13.1576 3.30072 12.845 2.98816C12.5325 2.67559 12.1085 2.5 11.6665 2.5H8.33317C7.89114 2.5 7.46722 2.67559 7.15466 2.98816C6.8421 3.30072 6.6665 3.72464 6.6665 4.16667V17.5M3.33317 5.83333H16.6665C17.587 5.83333 18.3332 6.57953 18.3332 7.5V15.8333C18.3332 16.7538 17.587 17.5 16.6665 17.5H3.33317C2.4127 17.5 1.6665 16.7538 1.6665 15.8333V7.5C1.6665 6.57953 2.4127 5.83333 3.33317 5.83333Z"
			stroke-width="1.66667" stroke-linecap="round" stroke-linejoin="round" />
	</symbol>

	<symbol id="message" viewBox="0 0 20 20">
		<path
			d="M17.5 12.5C17.5 12.942 17.3244 13.366 17.0118 13.6785C16.6993 13.9911 16.2754 14.1667 15.8333 14.1667H5.83333L2.5 17.5V4.16667C2.5 3.72464 2.67559 3.30072 2.98816 2.98816C3.30072 2.67559 3.72464 2.5 4.16667 2.5H15.8333C16.2754 2.5 16.6993 2.67559 17.0118 2.98816C17.3244 3.30072 17.5 3.72464 17.5 4.16667V12.5Z"
			stroke-width="2" stroke-linecap="round" stroke-linejoin="round" />
	</symbol>

	<symbol id="book" viewBox="0 0 20 20">
		<path
			d="M9.99935 5.83333C9.99935 4.94928 9.64816 4.10143 9.02304 3.47631C8.39792 2.85119 7.55007 2.5 6.66602 2.5H1.66602V15H7.49935C8.16239 15 8.79828 15.2634 9.26712 15.7322C9.73596 16.2011 9.99935 16.837 9.99935 17.5M9.99935 5.83333V17.5M9.99935 5.83333C9.99935 4.94928 10.3505 4.10143 10.9757 3.47631C11.6008 2.85119 12.4486 2.5 13.3327 2.5H18.3327V15H12.4993C11.8363 15 11.2004 15.2634 10.7316 15.7322C10.2627 16.2011 9.99935 16.837 9.99935 17.5"
			stroke-width="1.66667" stroke-linecap="round" stroke-linejoin="round" />
	</symbol>
	<symbol id="file" viewBox="0 0 20 20">
		<path
			d="M11.6663 1.66675H4.99967C4.55765 1.66675 4.13372 1.84234 3.82116 2.1549C3.5086 2.46746 3.33301 2.89139 3.33301 3.33341V16.6667C3.33301 17.1088 3.5086 17.5327 3.82116 17.8453C4.13372 18.1578 4.55765 18.3334 4.99967 18.3334H14.9997C15.4417 18.3334 15.8656 18.1578 16.1782 17.8453C16.4907 17.5327 16.6663 17.1088 16.6663 16.6667V6.66675M11.6663 1.66675L16.6663 6.66675M11.6663 1.66675V6.66675H16.6663M13.333 10.8334H6.66634M13.333 14.1667H6.66634M8.33301 7.50008H6.66634"
			stroke-width="2" stroke-linecap="round" stroke-linejoin="round" />
	</symbol>

	<symbol id="file2" viewBox="0 0 26 26">
		<path
			d="M15.1693 2.1665H6.5026C5.92797 2.1665 5.37687 2.39478 4.97054 2.80111C4.56421 3.20743 4.33594 3.75853 4.33594 4.33317V21.6665C4.33594 22.2411 4.56421 22.7922 4.97054 23.1986C5.37687 23.6049 5.92797 23.8332 6.5026 23.8332H19.5026C20.0772 23.8332 20.6283 23.6049 21.0347 23.1986C21.441 22.7922 21.6693 22.2411 21.6693 21.6665V8.6665M15.1693 2.1665L21.6693 8.6665M15.1693 2.1665V8.6665H21.6693M17.3359 14.0832H8.66927M17.3359 18.4165H8.66927M10.8359 9.74984H8.66927"
			stroke-width="1.66667" stroke-linecap="round" stroke-linejoin="round" />
	</symbol>


	<symbol id="car" viewBox="0 0 20 20">
		<path fill-rule="evenodd" clip-rule="evenodd"
			d="M11.667 4.1665C11.884 4.1665 12.0909 4.25105 12.2452 4.39969L12.3177 4.47926L15.4003 8.33317H15.8337C17.1651 8.33317 18.2534 9.37394 18.3294 10.6863L18.3337 10.8332V14.1665C18.3337 14.5939 18.012 14.9461 17.5975 14.9942L17.5003 14.9998H16.5247C16.1815 15.9708 15.2555 16.6665 14.167 16.6665C13.0785 16.6665 12.1524 15.9708 11.8092 14.9998H8.1914C7.84821 15.9708 6.92217 16.6665 5.83366 16.6665C4.74514 16.6665 3.81911 15.9708 3.47591 14.9998H2.50033C2.07296 14.9998 1.72074 14.6781 1.6726 14.2637L1.66699 14.1665V9.16484L1.6726 9.06932L1.68026 9.01758L1.7018 8.92741L1.72659 8.85701L3.39326 4.69034C3.50716 4.4056 3.76675 4.20908 4.06594 4.17263L4.16699 4.1665H11.667ZM5.00033 14.1665C5.00033 14.6267 5.37342 14.9998 5.83366 14.9998C6.2939 14.9998 6.66699 14.6267 6.66699 14.1665C6.66699 13.7063 6.2939 13.3332 5.83366 13.3332C5.37342 13.3332 5.00033 13.7063 5.00033 14.1665ZM8.1914 13.3332C7.84821 12.3622 6.92217 11.6665 5.83366 11.6665C4.74514 11.6665 3.81911 12.3622 3.47591 13.3332H3.33366V9.99984H15.8337L15.9308 10.0054C16.3453 10.0536 16.667 10.4058 16.667 10.8332V13.3332H16.5247C16.1815 12.3622 15.2555 11.6665 14.167 11.6665C13.0785 11.6665 12.1524 12.3622 11.8092 13.3332H8.1914ZM13.3337 14.1665C13.3337 14.6267 13.7068 14.9998 14.167 14.9998C14.6272 14.9998 15.0003 14.6267 15.0003 14.1665C15.0003 13.7063 14.6272 13.3332 14.167 13.3332C13.7068 13.3332 13.3337 13.7063 13.3337 14.1665ZM4.73033 5.83317H9.16699V8.33317H3.73033L4.73033 5.83317ZM11.267 5.83317H10.8337V8.33317H13.267L11.267 5.83317Z" />
	</symbol>

	<symbol id="edit" viewBox="0 0 20 20">
		<g>
			<path
				d="M14.167 2.49999C14.3859 2.28112 14.6457 2.1075 14.9317 1.98905C15.2176 1.8706 15.5241 1.80963 15.8337 1.80963C16.1432 1.80963 16.4497 1.8706 16.7357 1.98905C17.0216 2.1075 17.2815 2.28112 17.5003 2.49999C17.7192 2.71886 17.8928 2.97869 18.0113 3.26466C18.1297 3.55063 18.1907 3.85713 18.1907 4.16665C18.1907 4.47618 18.1297 4.78268 18.0113 5.06865C17.8928 5.35461 17.7192 5.61445 17.5003 5.83332L6.25033 17.0833L1.66699 18.3333L2.91699 13.75L14.167 2.49999Z"
				stroke-width="1.66667" stroke-linecap="round" stroke-linejoin="round" />
		</g>
	</symbol>

	<symbol id="hash" viewBox="0 0 20 20">
		<path d="M3.33301 7.5H16.6663M3.33301 12.5H16.6663M8.33301 2.5L6.66634 17.5M13.333 2.5L11.6663 17.5"
			stroke-width="1.66667" stroke-linecap="round" stroke-linejoin="round" />
	</symbol>

	<symbol id="email" viewBox="0 0 20 20">
		<path
			d="M13.3337 6.66666V10.8333C13.3337 11.4964 13.5971 12.1323 14.0659 12.6011C14.5347 13.0699 15.1706 13.3333 15.8337 13.3333C16.4967 13.3333 17.1326 13.0699 17.6014 12.6011C18.0703 12.1323 18.3337 11.4964 18.3337 10.8333V9.99999C18.3336 8.11918 17.6972 6.29372 16.5281 4.82043C15.3589 3.34715 13.7258 2.31268 11.8942 1.88524C10.0626 1.4578 8.14028 1.66253 6.43979 2.46613C4.7393 3.26974 3.36066 4.62495 2.52805 6.31143C1.69543 7.9979 1.45781 9.91644 1.85381 11.7551C2.24981 13.5937 3.25615 15.2444 4.70919 16.4385C6.16224 17.6327 7.97653 18.3003 9.85706 18.3326C11.7376 18.365 13.5738 17.7602 15.067 16.6167M13.3337 9.99999C13.3337 11.8409 11.8413 13.3333 10.0003 13.3333C8.15939 13.3333 6.667 11.8409 6.667 9.99999C6.667 8.15904 8.15939 6.66666 10.0003 6.66666C11.8413 6.66666 13.3337 8.15904 13.3337 9.99999Z"
			stroke-width="1.66667" stroke-linecap="round" stroke-linejoin="round" />
	</symbol>

	<symbol id="alert" viewBox="0 0 17 19">
		<path
			d="M14.1148 7.18344C14.1212 6.2488 13.8774 5.32947 13.4086 4.52089C12.9397 3.71231 12.263 3.04396 11.4487 2.58521C10.6344 2.12647 9.71208 1.89406 8.7776 1.91211C7.84311 1.93016 6.93049 2.19802 6.13448 2.68787C5.33846 3.17773 4.68808 3.87172 4.25085 4.6978C3.81361 5.52389 3.60546 6.45195 3.64801 7.38564C3.69055 8.31933 3.98225 9.22462 4.4928 10.0075C5.40451 11.4055 5.94428 11.9195 5.94428 13.5832C5.94428 13.7375 6.00558 13.8855 6.11469 13.9946C6.2238 14.1037 6.37178 14.165 6.52608 14.165H11.2311C11.3854 14.165 11.5334 14.1037 11.6425 13.9946C11.7516 13.8855 11.8129 13.7375 11.8129 13.5832C11.8129 11.8794 12.4167 11.3736 13.3224 9.92447C13.8363 9.10226 14.1107 8.15303 14.1148 7.18344Z"
			fill="#BFDBFE" stroke-width="2" stroke-linecap="round" stroke-linejoin="round" />
		<path d="M7.28125 17.0898L10.4745 17.0898" stroke-width="2" stroke-linecap="round" stroke-linejoin="round" />
	</symbol>

	<symbol id="coins" viewBox="0 0 20 20">
		<path
			d="M7.85201 3.4651C10.2492 1.06683 14.137 1.06776 16.5351 3.4651C18.9332 5.86244 18.9332 9.75059 16.5351 12.1489M13.9481 12.1924C13.9481 15.584 11.1989 18.3334 7.80756 18.3334C4.41622 18.3334 1.66699 15.584 1.66699 12.1924C1.66699 8.80077 4.41622 6.05134 7.80756 6.05134C11.1989 6.05134 13.9481 8.80077 13.9481 12.1924Z"
			stroke-width="1.66667" stroke-linecap="round" stroke-linejoin="round" />
	</symbol>

	<symbol id="attention-icon" viewBox="0 0 14 13">
		<path
			d="M7.00033 4.16667V6.5M7.00033 8.83334H7.00616M12.8337 6.5C12.8337 9.72167 10.222 12.3333 7.00033 12.3333C3.77866 12.3333 1.16699 9.72167 1.16699 6.5C1.16699 3.27834 3.77866 0.666672 7.00033 0.666672C10.222 0.666672 12.8337 3.27834 12.8337 6.5Z"
			stroke-width="1.2" stroke-linecap="round" stroke-linejoin="round" />
	</symbol>

	<symbol id="map" viewBox="0 0 20 20">
		<g>
			<path
				d="M6.66536 14.9998L0.832031 18.3332V4.99984L6.66536 1.6665M6.66536 14.9998L13.332 18.3332M6.66536 14.9998V1.6665M13.332 18.3332L19.1654 14.9998V1.6665L13.332 4.99984M13.332 18.3332V4.99984M13.332 4.99984L6.66536 1.6665"
				stroke-width="1.66667" stroke-linecap="round" stroke-linejoin="round" />
		</g>
	</symbol>

	<symbol id="loader" viewBox="0 0 24 25">
		<path
			d="M12 2.5V6.5M12 18.5V22.5M4.93 5.43L7.76 8.26M16.24 16.74L19.07 19.57M2 12.5H6M18 12.5H22M4.93 19.57L7.76 16.74M16.24 8.26L19.07 5.43"
			stroke-width="2" stroke-linecap="round" stroke-linejoin="round" />
	</symbol>

	<symbol id="check" viewBox="0 0 24 25">
		<rect y="0.5" width="24" height="24" rx="12" fill="#2563EB" />
		<path d="M16.6693 9L10.2526 15.4167L7.33594 12.5" stroke="white" stroke-width="2" stroke-linecap="round"
			stroke-linejoin="round" />
	</symbol>

	<symbol id="check-red" viewBox="0 0 24 25">
		<rect y="0.5" width="24" height="24" rx="12" fill="#B90000" />
		<path d="M16.6693 9L10.2526 15.4167L7.33594 12.5" stroke="white" stroke-width="2" stroke-linecap="round"
			stroke-linejoin="round" />
	</symbol>

	<symbol id="clipboard" viewBox="0 0 24 24">
		<path
			d="M16 4H18C18.5304 4 19.0391 4.21071 19.4142 4.58579C19.7893 4.96086 20 5.46957 20 6V20C20 20.5304 19.7893 21.0391 19.4142 21.4142C19.0391 21.7893 18.5304 22 18 22H6C5.46957 22 4.96086 21.7893 4.58579 21.4142C4.21071 21.0391 4 20.5304 4 20V6C4 5.46957 4.21071 4.96086 4.58579 4.58579C4.96086 4.21071 5.46957 4 6 4H8M9 2H15C15.5523 2 16 2.44772 16 3V5C16 5.55228 15.5523 6 15 6H9C8.44772 6 8 5.55228 8 5V3C8 2.44772 8.44772 2 9 2Z"
			stroke-width="1.66667" stroke-linecap="round" stroke-linejoin="round" />
	</symbol>

</svg>