<svg width="40" height="13" viewBox="0 0 40 13" fill="none" xmlns="http://www.w3.org/2000/svg">
<g clip-path="url(#clip0_342_3574)">
<path d="M17.3331 12.8124H14.0928L16.1195 0.228088H19.3596L17.3331 12.8124Z" fill="#00579F"/>
<path d="M29.0793 0.535766C28.4402 0.281139 27.4265 0 26.1731 0C22.9732 0 20.7198 1.71352 20.706 4.16335C20.6794 5.97082 22.3193 6.97474 23.5459 7.5774C24.7995 8.19324 25.2256 8.5952 25.2256 9.14413C25.2129 9.98719 24.2126 10.3758 23.2797 10.3758C21.986 10.3758 21.2929 10.1754 20.2395 9.70641L19.8128 9.50534L19.3594 12.3303C20.1193 12.6779 21.5195 12.9865 22.9732 13C26.3731 13 28.5866 11.313 28.6128 8.70232C28.6257 7.26975 27.7598 6.17207 25.8929 5.27509C24.7596 4.69929 24.0656 4.31103 24.0656 3.72189C24.0788 3.1863 24.6526 2.63772 25.9319 2.63772C26.9853 2.61085 27.7593 2.86513 28.3456 3.11957L28.6387 3.2532L29.0793 0.535766Z" fill="#00579F"/>
<path d="M33.3863 8.35425C33.6531 7.63129 34.68 4.83325 34.68 4.83325C34.6665 4.86012 34.9463 4.09695 35.1063 3.62845L35.3327 4.71279C35.3327 4.71279 35.9463 7.72507 36.0796 8.35425C35.5732 8.35425 34.0263 8.35425 33.3863 8.35425ZM37.386 0.228088H34.8797C34.1067 0.228088 33.5195 0.455491 33.1861 1.27222L28.373 12.8123H31.773C31.773 12.8123 32.3327 11.2591 32.453 10.9245C32.826 10.9245 36.1335 10.9245 36.6133 10.9245C36.7063 11.3663 36.9999 12.8123 36.9999 12.8123H40.0001L37.386 0.228088Z" fill="#00579F"/>
<path d="M11.3867 0.228088L8.21338 8.80941L7.86662 7.06902C7.27994 5.06083 5.44 2.87898 3.38672 1.7941L6.29335 12.7991H9.71986L14.813 0.228088H11.3867Z" fill="#00579F"/>
<path d="M5.26663 0.228088H0.0533341L0 0.482359C4.0667 1.52667 6.75999 4.04393 7.86654 7.06955L6.73323 1.28592C6.54665 0.482181 5.97326 0.254601 5.26663 0.228088Z" fill="#FAA61A"/>
</g>
<defs>
<clipPath id="clip0_342_3574">
<rect width="40" height="13" fill="white"/>
</clipPath>
</defs>
</svg>
