<svg width="56" height="56" fill="none" xmlns="http://www.w3.org/2000/svg"><g clip-path="url(#clip0_422_547)" fill="#fff"><path d="M42 38.5a.875.875 0 100-1.75.875.875 0 000 1.75zm5.222-23.898a.877.877 0 00-1.066-.63l-1.75.45a.874.874 0 10.436 1.695l1.75-.45a.876.876 0 00.63-1.065z"/><path d="M55.125 30.625h-3.5a.875.875 0 00-.875.875v12.25a.876.876 0 01-.875.875h-1.75V42c0-.965-.785-1.75-1.75-1.75h-.9c.098-.131.206-.255.29-.398a4.334 4.334 0 00-1.133-5.695 4.377 4.377 0 002.407-5.054l-.218-.847.848-.218a7.827 7.827 0 004.82-3.62 7.825 7.825 0 00.848-5.966l-1.089-4.238 2.543-.652a.877.877 0 00.63-1.065l-.652-2.543c-1.803-7.01-8.973-11.247-15.98-9.447L25.23 3.989l-.652-2.542a.88.88 0 00-1.066-.63l-6.78 1.742a.87.87 0 00-.535.402.871.871 0 00-.095.663l.653 2.542L.652 10.301a.877.877 0 00-.63 1.065l.435 1.696a5.243 5.243 0 003.53 3.7c.077 2.258.456 4.78 1.104 7.306.926 3.602 2.301 6.873 3.873 9.208 1.84 2.732 3.414 3.444 4.557 3.444a2.702 2.702 0 00.952-.174c.048-.005.095-.007.143-.02l8.898-2.285h.002l9.745-2.502.217.847a4.384 4.384 0 004.24 3.287c.1 0 .202-.012.303-.019a4.33 4.33 0 00-.259 2.859c.148.576.416 1.088.754 1.536h-.891c-.965 0-1.75.785-1.75 1.75v2.625c0 .965.785 1.75 1.75 1.75h.875v.875a4.38 4.38 0 004.375 4.375H49v3.5c0 .483.39.875.875.875h5.25a.875.875 0 00.875-.875V31.5a.875.875 0 00-.875-.875zM23.1 2.73l.434 1.695L18.45 5.73l-.435-1.695L23.1 2.73zm-7.69 28.287c-.199 2.21-.832 3.713-1.655 3.924-.82.215-2.1-.801-3.34-2.641-1.462-2.175-2.752-5.253-3.628-8.667-.59-2.296-.937-4.575-1.03-6.633a5.252 5.252 0 001.092-.159l.633-.163c.052 1.55.286 3.743.999 6.52 1.179 4.586 2.744 7.23 3.573 8.398a.872.872 0 00.93.341.876.876 0 00.652-.747c.163-1.422.261-4.491-.917-9.081-.595-2.311-1.382-4.424-2.277-6.191l1.735-.445c.887 1.824 1.66 3.958 2.237 6.2.878 3.415 1.232 6.733.996 9.344zM9.276 17.498c.561 1.226 1.197 2.898 1.749 5.046.543 2.118.8 3.878.903 5.274-.584-1.273-1.208-2.94-1.751-5.056-.549-2.135-.8-3.901-.9-5.264zM23.08 32.547l-6.576 1.688c.301-.77.535-1.766.651-3.062.252-2.805-.119-6.333-1.044-9.935a35.568 35.568 0 00-2.21-6.208l7.597-1.951c.888 1.827 1.663 3.95 2.24 6.199 1.954 7.613.935 12.859-.657 13.269zm10.594-2.72l-7.87 2.02c1.172-2.996.857-8.224-.37-13.004a35.505 35.505 0 00-2.213-6.206l1.428-.367a3.503 3.503 0 014.26 2.518 5.211 5.211 0 002.413 3.213 5.22 5.22 0 003.979.566l6.043-1.552a.877.877 0 00.63-1.065.877.877 0 00-1.065-.63l-6.044 1.553a3.472 3.472 0 01-2.652-.378 3.474 3.474 0 01-1.608-2.142 5.258 5.258 0 00-6.392-3.778l-17.8 4.571a3.505 3.505 0 01-4.26-2.519l-.218-.848 16.102-4.135 6.781-1.741.003-.001 14.404-3.7C45.295.64 51.512 4.316 53.072 10.39l.436 1.695-2.542.653h-.002l-1.616.415a.876.876 0 00.436 1.696l.769-.198 1.087 4.238a6.131 6.131 0 01-4.408 7.456l-1.693.434h-.003l-.001.001-11.862 3.046zm4.696 4.213a2.63 2.63 0 01-3.195-1.889l-.217-.847 10.17-2.612.218.847a2.628 2.628 0 01-1.89 3.196L38.37 34.04zm5.89 4.921a2.603 2.603 0 01-1.607 1.206 2.61 2.61 0 01-1.988-.283 2.607 2.607 0 01-1.206-1.606 2.608 2.608 0 01.282-1.99 2.64 2.64 0 012.264-1.29c.464.001.922.125 1.332.367a2.607 2.607 0 011.206 1.606c.174.68.074 1.386-.283 1.99zm-4.884 5.664h-1.75V42h8.75v2.625h-7zM54.25 54.25h-3.5v-2.625h3.5v2.625zm0-4.375H42.875a2.628 2.628 0 01-2.625-2.625v-.875h9.625A2.628 2.628 0 0052.5 43.75V32.375h1.75v17.5z"/></g><defs><clipPath id="clip0_422_547"><path fill="#fff" d="M0 0h56v56H0z"/></clipPath></defs></svg>