<svg width="56" height="56" fill="none" xmlns="http://www.w3.org/2000/svg"><path d="M51.575 36.706c-1.13-.618-2.452-.573-3.505.102l-7.508 4.366c-.171.1-.351.181-.531.263a3.48 3.48 0 00.219-1.187c0-1.93-1.57-3.5-3.5-3.5h-8.995c-.818 0-1.62-.23-2.318-.663l-4.448-2.784a6.146 6.146 0 00-3.244-.928H13c-.392-1.505-1.75-2.625-3.376-2.625H3.5a.875.875 0 00-.875.875v17.5c0 .483.392.875.875.875h6.125c1.626 0 2.984-1.12 3.376-2.625h.841c2.707 0 5.336.973 7.4 2.736l.886.764a14.522 14.522 0 009.456 3.483c2.845 0 5.701-.83 8.175-2.51l.114-.078a.875.875 0 10-.996-1.44l-.107.075c-4.76 3.234-11.136 2.88-15.501-.857l-.887-.764a13.16 13.16 0 00-8.54-3.159h-.717v-.875a.875.875 0 00-1.75 0v1.75c0 .965-.785 1.75-1.75 1.75h-5.25V31.5h5.25c.965 0 1.75.785 1.75 1.75v7a.875.875 0 001.75 0v-6.125h4.62c.818 0 1.62.23 2.318.663l4.448 2.784c.977.607 2.1.928 3.244.928h8.995c.965 0 1.75.785 1.75 1.75 0 .466-.182.905-.514 1.236-.33.332-.77.514-1.236.514h-10.5a.875.875 0 000 1.75h11.235a7.874 7.874 0 003.957-1.064l7.54-4.385a1.694 1.694 0 011.753-.06c.557.306.89.867.89 1.51 0 .569-.282 1.1-.755 1.42l-8.487 5.776a.875.875 0 10.984 1.446l8.487-5.774a3.468 3.468 0 001.521-2.877 3.416 3.416 0 00-1.8-3.036z" fill="#fff"/><path d="M7.875 36.75a1.75 1.75 0 100-3.5 1.75 1.75 0 000 3.5zM22.13 23.808l.266.166a6.07 6.07 0 001.536 5.605 6.074 6.074 0 005.807 1.74l.305-.071a6.078 6.078 0 005.202 2.875 6.064 6.064 0 005.187-2.877l.166-.267a6.074 6.074 0 005.605-1.536 6.073 6.073 0 001.74-5.807l-.07-.305a6.078 6.078 0 002.873-5.06 6.066 6.066 0 00-2.876-5.328l-.267-.167a6.07 6.07 0 00-1.536-5.605 6.072 6.072 0 00-5.807-1.74l-.305.071a6.078 6.078 0 00-5.06-2.874c-2.21-.065-4.174 1.027-5.328 2.876l-.167.268a6.063 6.063 0 00-3.752.316.875.875 0 10.678 1.614 4.355 4.355 0 012.89-.172l.36.096c.372.1.764-.055.968-.382l.507-.813a4.337 4.337 0 013.805-2.053 4.348 4.348 0 013.722 2.232l.184.323a.87.87 0 00.96.42l.933-.218a4.34 4.34 0 014.146 1.243 4.347 4.347 0 011.043 4.214l-.096.36c-.1.37.055.764.382.968l.813.507a4.332 4.332 0 012.053 3.805 4.348 4.348 0 01-2.231 3.722l-.324.184a.875.875 0 00-.42.96l.218.933a4.337 4.337 0 01-1.243 4.146 4.352 4.352 0 01-4.214 1.043l-.359-.096a.875.875 0 00-.969.382l-.507.813a4.342 4.342 0 01-3.804 2.053 4.347 4.347 0 01-3.723-2.232l-.184-.323a.871.871 0 00-.96-.42l-.933.218a4.337 4.337 0 01-4.145-1.243 4.347 4.347 0 01-1.044-4.214l.096-.36a.876.876 0 00-.382-.968l-.813-.507a4.332 4.332 0 01-2.053-3.804 4.347 4.347 0 012.232-3.723l.323-.184a.875.875 0 00.42-.96l-.217-.934a4.271 4.271 0 01.405-3.05.875.875 0 10-1.536-.838 6.082 6.082 0 00-.574 4.284l.071.305a6.078 6.078 0 00-2.873 5.06 6.067 6.067 0 002.875 5.329z" fill="#fff"/><path d="M41.426 13.831a.874.874 0 101.428-1.01A9.635 9.635 0 0035 8.75c-5.307 0-9.625 4.318-9.625 9.625S29.693 28 35 28s9.625-4.318 9.625-9.625a9.48 9.48 0 00-.222-2.035.874.874 0 10-1.709.377 7.58 7.58 0 01.181 1.658c0 4.342-3.533 7.875-7.875 7.875-4.342 0-7.875-3.533-7.875-7.875 0-4.342 3.533-7.875 7.875-7.875a7.884 7.884 0 016.426 3.331z" fill="#fff"/><path d="M31.5 23.625c.256 0 .51-.112.683-.328l7-8.75a.874.874 0 10-1.366-1.093l-7 8.75a.874.874 0 00.683 1.421zm3.5-8.75a2.628 2.628 0 00-2.625-2.625 2.628 2.628 0 00-2.625 2.625 2.628 2.628 0 002.625 2.625A2.628 2.628 0 0035 14.875zm-3.5 0a.876.876 0 011.75 0 .876.876 0 01-1.75 0zm6.125 9.625a2.628 2.628 0 002.625-2.625 2.628 2.628 0 00-2.625-2.625A2.628 2.628 0 0035 21.875a2.628 2.628 0 002.625 2.625zm0-3.5a.876.876 0 010 1.75.876.876 0 010-1.75zM7 39.375v5.25a.875.875 0 001.75 0v-5.25a.875.875 0 00-1.75 0z" fill="#fff"/></svg>