<svg width="56" height="56" fill="none" xmlns="http://www.w3.org/2000/svg"><path d="M42.279 22.343c-1.262 0-2.25.988-2.25 2.249 0 1.24 1.01 2.25 2.25 2.25 1.21 0 2.23-1.03 2.23-2.25s-1.02-2.25-2.23-2.25zm0 2.858a.61.61 0 01-.609-.609c0-.347.262-.608.609-.608.314 0 .59.284.59.608 0 .313-.287.609-.59.609zm-.021-12.038c-1.218 0-2.25.722-2.199 1.877.08 1.787.217 3.825.217 5.34 0 .81.613 1.629 1.982 1.629.952 0 1.963-.572 1.963-1.63 0-1.513.137-3.544.217-5.338.052-1.157-1.001-1.878-2.18-1.878zm.54 1.806c-.078 1.759-.212 3.772-.217 5.327a.77.77 0 01-.323.072c-.17 0-.282-.026-.342-.048-.003-1.551-.138-3.56-.218-5.352l.001-.01c.08-.075.268-.154.56-.154.278 0 .462.083.54.159v.006z" fill="#fff"/><path d="M55.825 27.652L43.265 7.27a1.17 1.17 0 00-1.992 0L34.291 18.6H23.46a.82.82 0 100 1.64h9.821l-4.566 7.411a1.17 1.17 0 00.535 1.689l-7.452 5.542a.424.424 0 01-.504 0L1.78 20.371a.495.495 0 01.328-.13h17.523a.82.82 0 100-1.64H2.108C.957 18.6.011 19.523 0 20.648V46.91a2.38 2.38 0 002.377 2.377h38.335a2.38 2.38 0 002.377-2.377v-9.405a.82.82 0 10-1.64 0v9.405a.739.739 0 01-.493.694l-15.86-13.13 6.775-5.038h9.578v4.24a.82.82 0 001.64 0v-4.24h11.74a1.17 1.17 0 00.996-1.784zM2.133 47.604a.739.739 0 01-.492-.694V22.313l16.353 12.162-15.86 13.129zm36.302.043H4.655L19.35 35.483l.964.717a2.05 2.05 0 002.462 0l.964-.717 14.695 12.164zm-7.882-19.852L42.269 8.78l11.716 19.015H30.553z" fill="#fff"/></svg>