<svg width="56" height="56" fill="none" xmlns="http://www.w3.org/2000/svg"><g clip-path="url(#clip0_422_597)" fill="#fff"><path d="M51.333 3.733H41.066V1.867A1.867 1.867 0 0039.2 0H21.854a1.88 1.88 0 00-1.32.547l-3.187 3.186H4.666a2.8 2.8 0 00-2.8 2.8V42a2.8 2.8 0 002.8 2.8h13.067v2.3l-5.185 3.454c-.038.029-.074.06-.108.093-.015.014-.03.025-.044.039a.934.934 0 00-.173.255c-.01.022-.016.043-.025.066a.933.933 0 00-.065.326v2.8A1.867 1.867 0 0014 56h28a1.867 1.867 0 001.866-1.867v-2.8a.934.934 0 00-.065-.323c-.009-.023-.015-.044-.025-.066a.934.934 0 00-.173-.256c-.013-.014-.029-.024-.044-.038a1.035 1.035 0 00-.108-.093L38.266 47.1v-2.3h13.067a2.8 2.8 0 002.8-2.8V6.533a2.8 2.8 0 00-2.8-2.8zm-10.267 5.6h7.467v22.4h-7.467v-22.4zm-1.867 22.4H16.8V7.467h3.734A1.867 1.867 0 0022.399 5.6V1.867h16.8v29.866zm-24.266 0H7.466v-22.4h7.467v22.4zM18.119 5.6l2.414-2.414V5.6h-2.414zm-13.453 0H15.48a1.88 1.88 0 00-.547 1.32v.547H7.466A1.867 1.867 0 005.6 9.333v22.4A1.867 1.867 0 007.466 33.6h41.067a1.867 1.867 0 001.867-1.867v-22.4a1.866 1.866 0 00-1.867-1.866h-7.467V5.6h10.267a.933.933 0 01.933.933v28.934H3.733V6.533a.933.933 0 01.933-.933zm35.187 44.8H16.146l2.8-1.867h18.107l2.8 1.867zm-25.854 3.733v-1.866h28v1.866H14zm22.4-7.466H19.6V44.8h16.8v1.867zm14.934-3.734H4.666A.933.933 0 013.733 42v-4.667h48.533V42a.933.933 0 01-.933.933z"/><path d="M29.866 39.2h-3.733a.933.933 0 100 1.867h3.733a.934.934 0 000-1.867zM33.6 12.133a.933.933 0 11-.81 1.4.933.933 0 00-1.615.934c.338.568.867.998 1.493 1.213v.187a.933.933 0 101.867 0v-.172a2.794 2.794 0 00-.935-5.428.933.933 0 11.809-1.4.933.933 0 001.615-.934 2.793 2.793 0 00-1.491-1.213v-.187a.934.934 0 00-1.867 0v.172a2.793 2.793 0 00.934 5.428zm0 13.067a.933.933 0 11-.81 1.4.933.933 0 00-1.615.933 2.79 2.79 0 001.493 1.214v.186a.933.933 0 101.867 0v-.171a2.794 2.794 0 00-.935-5.429.934.934 0 11.809-1.4.933.933 0 001.615-.933 2.793 2.793 0 00-1.491-1.213V19.6a.933.933 0 00-1.867 0v.172A2.793 2.793 0 0033.6 25.2zM20.533 10.814l-.274-.274a.933.933 0 00-1.32 1.32l.934.933a.933.933 0 001.32 0l2.8-2.8a.934.934 0 00-1.32-1.32l-2.14 2.14zm0 5.986a.934.934 0 000-1.867h-.934a.933.933 0 000 1.867h.934zm2.8-.933a.933.933 0 00.933.933H28a.933.933 0 100-1.867h-3.734a.933.933 0 00-.933.934zm-3.46 9.993a.933.933 0 001.32 0l2.8-2.8a.934.934 0 00-1.32-1.32l-2.14 2.14-.274-.273a.933.933 0 00-1.32 1.32l.934.933zm.66 2.14h-.934a.933.933 0 100 1.867h.934a.934.934 0 000-1.867zM28 28h-3.734a.933.933 0 100 1.867H28A.933.933 0 0028 28z"/></g><defs><clipPath id="clip0_422_597"><path fill="#fff" d="M0 0h56v56H0z"/></clipPath></defs></svg>